<svg version="1.1" id="Livello_1" xmlns="http://www.w3.org/2000/svg" x="0" y="0" viewBox="0 0 611.7 131.2" style="enable-background:new 0 0 611.7 131.2" xml:space="preserve"><style>.st0{fill:#fff}</style><path class="st0" d="M446.4 97V33.2h5.7v58.3h24.4V97h-30.1zm70.6 0-3-4.5c-1.2 1.6-2.8 3-4.7 3.9-1.9 1-4 1.5-6.2 1.5h-1.4c-7.4 0-13.4-6-13.4-13.4V84c0-1.8.3-3.6 1-5.2s1.6-3.1 2.9-4.3c1.2-1.2 2.7-2.2 4.3-2.9 1.6-.7 3.4-1.1 5.2-1h11.6v-7c0-1-.2-2.1-.6-3-.8-1.9-2.3-3.4-4.2-4.2-1-.4-2-.6-3-.6h-3.2c-1 0-2.1.2-3 .6-.9.4-1.8 1-2.5 1.7-1.5 1.5-2.3 3.5-2.3 5.6v1.6l-5.5-.9v-.5c0-1.8.3-3.6 1-5.2 1.3-3.2 3.9-5.8 7.1-7.1 1.6-.7 3.4-1.1 5.2-1h3.2c1.8 0 3.6.3 5.2 1s3 1.6 4.3 2.9c2.5 2.5 3.9 5.9 3.9 9.5v33H517zm-3.6-22h-11.6c-1 0-2.1.2-3 .6-.9.4-1.8 1-2.5 1.7s-1.3 1.6-1.7 2.5c-.4 1-.6 2-.6 3v1.9c0 1 .2 2.1.6 3 .4.9 1 1.8 1.7 2.5s1.6 1.3 2.5 1.7c1 .4 2 .6 3 .6h3.7c2.1 0 4.1-.8 5.6-2.3.7-.7 1.3-1.6 1.7-2.5.4-1 .6-2 .6-3V75zm50.4 14.7c-.7 1.6-1.6 3.1-2.9 4.3-2.5 2.5-5.9 3.9-9.5 3.9h-3.7c-3.5 0-7-1.4-9.5-3.9s-3.9-5.9-3.9-9.5V33.2h5.5v22.1c2.5-3 6.3-4.8 10.2-4.7h1.4c1.8 0 3.6.3 5.2 1s3 1.6 4.3 2.9c2.5 2.5 3.9 5.9 3.9 9.5v20.6c0 1.7-.3 3.5-1 5.1m-4.5-26c0-1-.2-2.1-.6-3-.4-.9-1-1.8-1.7-2.5s-1.6-1.3-2.5-1.7c-1-.4-2-.6-3-.6h-3.7c-1 0-2.1.2-3 .6-.9.4-1.8 1-2.5 1.7s-1.3 1.6-1.7 2.5c-.4 1-.6 2-.6 3v21.2c0 1 .2 2.1.6 3 .4.9 1 1.8 1.7 2.5s1.6 1.3 2.5 1.7c1 .4 2 .6 3 .6h3.7c1 0 2.1-.2 3-.6.9-.4 1.8-1 2.5-1.7s1.3-1.6 1.7-2.5c.4-1 .6-2 .6-3V63.7zm52.3 21.8c0 1.8-.4 3.5-1.1 5.1-.7 1.5-1.8 2.8-3 3.9-1.3 1.1-2.8 2-4.4 2.5-1.7.6-3.5.9-5.3.9h-3.7c-1.8 0-3.6-.4-5.3-1.1-1.6-.7-3.1-1.6-4.4-2.9-1.3-1.2-2.3-2.7-3-4.3-.7-1.6-1.1-3.4-1.1-5.2v-1.8l5.5-.9v3c0 1 .2 2.1.7 3 .4 1 1.1 1.8 1.8 2.5.8.7 1.7 1.3 2.7 1.7 1 .4 2.1.6 3.2.6h3.6c1.1 0 2.1-.2 3.2-.5 1-.3 1.9-.8 2.7-1.4.8-.6 1.4-1.3 1.9-2.2.5-.9.7-1.9.7-2.9.1-1.4-.3-2.8-1.1-4-.7-1.1-1.7-2-2.8-2.6-1.3-.7-2.6-1.3-4-1.7-1.5-.5-3-.9-4.5-1.4-1.5-.5-3.1-1-4.5-1.6-1.5-.6-2.8-1.3-4-2.3-1.2-1-2.2-2.2-2.8-3.6-.8-1.7-1.1-3.6-1.1-5.4 0-1.7.3-3.5 1.1-5 .7-1.5 1.7-2.8 2.9-3.9s2.7-2 4.2-2.6c1.7-.6 3.4-.9 5.2-.9h3.2c1.8 0 3.6.3 5.2 1s3 1.6 4.3 2.9c1.2 1.2 2.2 2.7 2.9 4.3.7 1.6 1.1 3.4 1 5.2v.2l-5.5.9v-1.4c0-1-.2-2.1-.6-3-.8-1.9-2.3-3.4-4.2-4.2-1-.4-2-.6-3.1-.6h-3.2c-1 0-2.1.2-3 .5-.9.3-1.8.8-2.5 1.4-1.5 1.3-2.4 3.2-2.3 5.1-.1 1.4.3 2.7 1.1 3.8.7 1 1.7 1.9 2.8 2.5 1.3.7 2.6 1.3 4 1.7l4.5 1.4c1.5.5 3 1 4.5 1.7 1.5.6 2.8 1.4 4 2.4 1.2 1 2.2 2.3 2.8 3.7.6 1.8.9 3.7.8 5.5M341.6 97.9c-2.1 0-4.2-.4-6.2-1.1-1.9-.7-3.6-1.7-5.1-3-1.4-1.3-2.6-2.8-3.4-4.5-.8-1.8-1.3-3.7-1.3-5.6V65c0-1.9.4-3.9 1.3-5.6.8-1.7 2-3.3 3.4-4.5 1.5-1.3 3.2-2.3 5.1-3 2-.7 4.1-1.1 6.2-1.1h3.7c2.1 0 4.2.4 6.2 1.1 1.9.7 3.6 1.7 5.1 3 1.4 1.3 2.6 2.8 3.4 4.5.8 1.8 1.3 3.7 1.3 5.6v12h-25v6.9c0 .6.1 1.3.4 1.9.3.6.7 1.1 1.2 1.5.5.5 1.1.8 1.7 1 .7.3 1.4.4 2.1.4h3.7c.7 0 1.4-.1 2.1-.4.6-.2 1.2-.6 1.7-1s.9-.9 1.1-1.5c.3-.6.4-1.2.4-1.9v-3.2l10.6 1.5v1.3c0 1.9-.4 3.9-1.3 5.6-.8 1.7-2 3.3-3.4 4.5-1.5 1.3-3.2 2.3-5.1 3-2 .8-4.1 1.1-6.2 1.1l-3.7.2zm8.9-29.4v-3.8c0-.6-.1-1.3-.4-1.9-.3-.6-.7-1.1-1.1-1.5-.5-.5-1.1-.8-1.7-1-.7-.2-1.4-.4-2.1-.4h-3.7c-1.4 0-2.7.5-3.8 1.4-.5.4-.9.9-1.2 1.5-.3.6-.4 1.2-.4 1.9v3.8h14.4zm-96.2 29.4c-2.1 0-4.2-.4-6.2-1.1-1.9-.7-3.6-1.7-5.1-3-1.4-1.3-2.6-2.8-3.4-4.5-.8-1.8-1.3-3.7-1.2-5.6V65c0-1.9.4-3.9 1.2-5.6.8-1.7 2-3.3 3.4-4.5 1.5-1.3 3.2-2.3 5.1-3 2-.8 4.1-1.1 6.2-1.1h3.7c2.1 0 4.2.4 6.2 1.1 1.9.7 3.6 1.7 5.1 3 1.4 1.3 2.6 2.8 3.4 4.5.8 1.8 1.3 3.7 1.3 5.6v12h-25v6.9c0 .6.1 1.3.4 1.9.3.6.7 1.1 1.1 1.5.5.4 1.1.8 1.7 1 .7.3 1.4.4 2.1.4h3.7c.7 0 1.4-.1 2.1-.4.6-.2 1.2-.6 1.7-1s.9-.9 1.2-1.5c.3-.6.4-1.2.4-1.9v-3.2l10.6 1.5v1.3c0 1.9-.4 3.9-1.3 5.6-.8 1.7-2 3.3-3.4 4.5-1.5 1.3-3.2 2.3-5.1 3-2 .8-4.1 1.1-6.2 1.1l-3.7.2zm9-29.4v-3.8c0-.7-.1-1.3-.4-1.9-.3-.6-.7-1.1-1.1-1.5-1-.9-2.4-1.4-3.8-1.4h-3.7c-.7 0-1.4.1-2.1.4-.6.2-1.2.6-1.7 1s-.9.9-1.1 1.5c-.3.6-.4 1.2-.4 1.9v3.8h14.3zm-58.2 29.4c-2.4 0-4.9-.4-7.2-1.3-2.2-.8-4.2-2-5.9-3.5-1.7-1.5-3.1-3.3-4.1-5.3-1-2-1.5-4.3-1.5-6.5V77l10.9-1.6v6c0 .9.2 1.8.6 2.6.4.9 1 1.6 1.8 2.3 1.6 1.4 3.6 2.1 5.7 2.1h4c1 0 2.1-.2 3-.5.9-.4 1.8-.9 2.6-1.5s1.4-1.4 1.8-2.3c.4-.8.6-1.7.6-2.6v-1.8c.1-1.3-.3-2.7-.9-3.8-.7-1.1-1.6-2-2.7-2.7-1.3-.9-2.8-1.6-4.3-2.1-1.8-.7-3.6-1.3-5.5-1.9-1.9-.6-3.9-1.4-5.8-2.2-2-.9-3.8-2-5.4-3.3-1.7-1.4-3.1-3.1-4-5.1-1.1-2.3-1.6-4.8-1.5-7.3v-1.1c0-2.3.5-4.5 1.5-6.5.9-2 2.3-3.8 3.9-5.3 1.7-1.5 3.7-2.7 5.8-3.5 2.3-.9 4.7-1.3 7.1-1.3h4.1c2.4 0 4.8.4 7.1 1.3 2.1.8 4.1 2 5.8 3.6 1.6 1.5 3 3.3 3.9 5.3 1 2 1.4 4.3 1.4 6.5v3.5l-11 1.6v-5.1c0-.9-.2-1.9-.6-2.7-.4-.8-1-1.6-1.6-2.2-.7-.6-1.5-1.2-2.4-1.5-.9-.4-1.9-.5-3-.5h-3.6c-1 0-2 .2-3 .5-.9.4-1.7.9-2.5 1.5-.7.6-1.3 1.4-1.7 2.2-.4.8-.6 1.8-.6 2.7v.7c-.1 1.2.3 2.4.9 3.5.7 1 1.6 1.9 2.7 2.6 1.3.9 2.8 1.6 4.3 2.1l5.5 2c2 .7 3.9 1.5 5.7 2.3 1.9.9 3.8 2.1 5.4 3.4 1.7 1.4 3 3.2 4 5.2 1.1 2.3 1.6 4.8 1.5 7.3v1.8c0 2.3-.5 4.5-1.5 6.6-1 2-2.4 3.8-4 5.3-1.7 1.5-3.7 2.7-5.9 3.5-2.3.9-4.7 1.3-7.2 1.3h-4.2zm191.4-.8V64.7c0-.6-.1-1.3-.4-1.9-.3-.6-.7-1.1-1.1-1.5-.5-.5-1.1-.8-1.7-1-.7-.2-1.4-.4-2.1-.4h-3.7c-1.4 0-2.7.5-3.8 1.4-.5.4-.9.9-1.2 1.5-.3.6-.4 1.2-.4 1.9v32.4h-10.6V51.4h5.8l2 2.7c1-.8 2-1.4 3.1-1.9 2.3-1.1 4.8-1.6 7.4-1.6h1.4c2.1 0 4.2.4 6.2 1.1 1.9.7 3.6 1.7 5.1 3 1.4 1.3 2.6 2.8 3.4 4.5.8 1.8 1.3 3.7 1.3 5.6V97l-10.7.1zm-99.9 0-18-45.7h10.9l10.2 26.7 10.2-26.7h11L303 97.1h-6.4z"/><path d="M118.8 19.2h-15.2L111.2 6l3.5-6H0l3.4 6 12.9 22.2 11 19.1 1.2 2h23L33.7 79.9l-1.2 2 1.2 2L46.5 106l11.1 19.2 3.5 6 3.5-6 57.7-100 3.5-6h-7zM63.6 42.3H32.5l-9.3-16.1h68.2L50 98l-9.3-16.1 22.9-39.6zM102.5 7l-9.3 16.2H21.5L12.1 7h90.4zM73.3 63.6l21.6-37.4h18.7l-52.5 91-9.4-16.2 21.6-37.4zM30.8 45.3l-11-19.1L6.9 4l12.8 22.2 11.1 19.1z" style="fill:#ff5e07"/></svg>