<svg xmlns="http://www.w3.org/2000/svg" width="23" height="23"><defs><linearGradient id="cy7ptva3ba" x1="49.501%" x2="50.621%" y1="-1.017%" y2="100.575%"><stop offset="0%" stop-color="#FFF"/><stop offset="100%" stop-color="#CCBED5"/></linearGradient><linearGradient id="zz99cgx5gb" x1="33.513%" x2="70.52%" y1="31.098%" y2="68.738%"><stop offset="0%" stop-color="#FFF"/><stop offset="100%" stop-color="#CCBED5"/></linearGradient></defs><g fill-rule="nonzero" fill="none"><path fill="url('#cy7ptva3ba')" d="M11.5 0c1.054 0 1.918.816 1.995 1.85L13.5 2v19a2 2 0 0 1-3.995.15L9.5 21V2a2 2 0 0 1 2-2z" transform="rotate(-90 11.5 11.5)"/><path fill="url('#zz99cgx5gb')" d="M19.55 9.623a1.999 1.999 0 0 1 3.014 2.624l-.114.13-9.5 10a2 2 0 0 1-2.778.119l-.122-.119-9.5-10a2 2 0 0 1 2.776-2.875l.124.12 8.05 8.474 8.05-8.473z" transform="rotate(-90 11.5 11.5)"/></g></svg>