<svg fill="#fff" xmlns="http://www.w3.org/2000/svg" width="64" height="64"><path d="M31 2C15.012 2 2 15.012 2 31s13.012 29 29 29 29-13.012 29-29S46.988 2 31 2Zm0 2c14.887 0 27 12.113 27 27S45.887 58 31 58 4 45.887 4 31 16.113 4 31 4Zm-.438 4.008a23.072 23.072 0 0 0-15.828 6.726c-8.964 8.97-8.964 23.559 0 32.528a1 1 0 0 0 1.418 0 1 1 0 0 0 0-1.414c-8.191-8.188-8.187-21.508 0-29.696a21.06 21.06 0 0 1 18.188-5.886 1 1 0 0 0 .316-1.977 22.598 22.598 0 0 0-4.093-.281Zm8.094 1.375c-.386.02-.746.265-.89.652a.999.999 0 0 0 .586 1.29c.71.265 1.414.57 2.101.913.145.075.297.11.45.11.363 0 .714-.2.894-.551a1.007 1.007 0 0 0-.445-1.344 24.003 24.003 0 0 0-2.301-1.008 1.057 1.057 0 0 0-.395-.062Zm5.778 3.293a.996.996 0 0 0-.496 1.777 20.748 20.748 0 0 1 1.91 1.7c8.191 8.187 8.191 21.507 0 29.695a1.004 1.004 0 0 0 0 1.418c.195.191.453.293.71.293.255 0 .512-.102.708-.293 8.964-8.97 8.964-23.563 0-32.532a24.17 24.17 0 0 0-2.094-1.855 1.008 1.008 0 0 0-.738-.203ZM29 15c-.555 0-1 .445-1 1v2h-3c-.555 0-1 .445-1 1v22c0 .555.445 1 1 1h3v2c0 .555.445 1 1 1 .555 0 1-.445 1-1v-2h2v2c0 .555.445 1 1 1 .555 0 1-.445 1-1v-2c3.309 0 6-2.691 6-6v-2a5.994 5.994 0 0 0-3.492-5.441A4.984 4.984 0 0 0 38 25v-2a5.007 5.007 0 0 0-4.02-4.902c.004-.032.02-.063.02-.098v-2c0-.555-.445-1-1-1-.555 0-1 .445-1 1v2h-2v-2c0-.555-.445-1-1-1Zm-3 5h7c1.652 0 3 1.348 3 3v2c0 1.652-1.348 3-3 3h-7Zm0 10h8c2.207 0 4 1.793 4 4v2c0 2.207-1.793 4-4 4h-8Zm-4.625 16.395a.992.992 0 0 0-.988.492l-1 1.73a1 1 0 0 0 .363 1.367.999.999 0 0 0 1.363-.367l1-1.73a.998.998 0 0 0-.738-1.492Zm19.25 0a1.002 1.002 0 0 0-.738 1.496l1 1.73a.995.995 0 0 0 1.363.363.994.994 0 0 0 .363-1.363l-1-1.73a1.002 1.002 0 0 0-.988-.496Zm-14.809 1.949a1.007 1.007 0 0 0-.832.734l-.515 1.934a1 1 0 0 0 .707 1.222.98.98 0 0 0 .262.032c.437 0 .843-.293.964-.739l.52-1.933a1.001 1.001 0 0 0-.707-1.223.928.928 0 0 0-.399-.027Zm10.372 0a.946.946 0 0 0-.403.027c-.531.14-.847.691-.707 1.223l.52 1.933a1 1 0 0 0 .965.739.98.98 0 0 0 .261-.032 1 1 0 0 0 .707-1.222l-.515-1.934a1.007 1.007 0 0 0-.828-.734ZM31 49c-.555 0-1 .445-1 1v2c0 .555.445 1 1 1 .555 0 1-.445 1-1v-2c0-.555-.445-1-1-1Z"/></svg>