<svg width="400" height="125" xmlns="http://www.w3.org/2000/svg" xmlns:xlink="http://www.w3.org/1999/xlink"><defs><path id="path-1" d="M0 .65h52.823v105.354H0z"/></defs><g id="Unified-Headers" stroke="none" stroke-width="1" fill="none" fill-rule="evenodd"><g id="Assets" transform="translate(-190 -200)"><g id="brand/products/logos/liquid" transform="translate(190 200)"><g id="Group-38"><path d="M23.116 84.472a5.643 5.643 0 0 1-5.193-3.416c-3.102-7.25-4.672-14.954-4.672-22.895 0-29.535 22.2-54.523 51.64-58.12 3.097-.372 5.907 1.807 6.288 4.882.38 3.074-1.819 5.873-4.91 6.25C42.473 14.083 24.53 34.282 24.53 58.16c0 6.426 1.27 12.652 3.773 18.505 1.22 2.85-.117 6.146-2.983 7.357-.721.305-1.47.449-2.205.449" id="Fill-1" fill="#2CCCBF"/><path d="M35.303 53.83c-.315 0-.638-.039-.956-.122-2.05-.531-3.282-2.638-2.755-4.704 4.873-19.104 21.943-32.44 41.514-32.44a42.677 42.677 0 0 1 27.375 9.967 3.883 3.883 0 0 1 .498 5.437 3.805 3.805 0 0 1-5.39.505 35.056 35.056 0 0 0-22.483-8.186c-16.077 0-30.097 10.955-34.1 26.64a3.833 3.833 0 0 1-3.703 2.903" id="Fill-3" fill="#9EF2ED"/><path d="M70.296 99.278a42.633 42.633 0 0 1-13.195-3.038c-1.989-.809-2.958-3.108-2.167-5.137.795-2.027 3.048-3.016 5.037-2.209a34.999 34.999 0 0 0 10.84 2.496c5.17.351 10.227-.416 15.03-2.283 2.002-.775 4.24.249 5.002 2.289.76 2.04-.243 4.325-2.242 5.103a42.292 42.292 0 0 1-18.305 2.78" id="Fill-5" fill="#9EF2ED"/><g id="Group-9" transform="translate(0 18.22)"><mask id="mask-2" fill="#fff"><use xlink:href="#path-1"/></mask><path d="M48.98 106.005c-.37 0-.748-.055-1.121-.17C19.68 97.242-.001 69.672-.001 39.143 0 26.07 3.716 13.37 10.746 2.417a3.837 3.837 0 0 1 5.307-1.157 3.842 3.842 0 0 1 1.16 5.31c-6.234 9.711-9.529 20.976-9.529 32.573 0 27.179 17.443 51.728 42.418 59.342a3.844 3.844 0 0 1-1.12 7.52" id="Fill-7" fill="#9EF2ED" mask="url('#mask-2')"/></g><path d="M72.497 114.286c-16.772 0-32.088-6.3-42.363-17.517a4.36 4.36 0 0 1 .296-6.19 4.44 4.44 0 0 1 6.236.296c9.075 9.904 23.035 15.237 38.24 14.6a4.386 4.386 0 0 1 4.593 4.195c.102 2.416-1.79 4.46-4.228 4.56-.927.037-1.856.056-2.774.056" id="Fill-10" fill="#2CCCBF"/><path d="M177.585 12.422c-1.568 0-2.844 1.245-2.844 2.773v36.15h7.454V12.423h-4.61Z" id="Fill-12" fill="#2CCCBF"/><path d="M237.943 12.422a2.755 2.755 0 0 0-2.746 2.76v22.673c0 7.816 5.92 13.49 14.078 13.49 8.159 0 14.079-5.674 14.079-13.49V12.422h-4.368a2.755 2.755 0 0 0-2.747 2.76V37.58c0 4.552-2.669 7.38-6.964 7.38-4.261 0-6.907-2.828-6.907-7.38V12.422h-4.425Z" id="Fill-14" fill="#2CCCBF"/><path d="M279.452 12.422c-1.571 0-2.847 1.245-2.847 2.777v36.147h7.453V12.422h-4.606Z" id="Fill-16" fill="#2CCCBF"/><path d="M305.401 18.86h6.007c2.612 0 4.49.795 5.904 2.504v.002c1.457 1.794 1.704 4.16 1.704 10.35 0 6.057-.236 8.88-1.704 10.684-1.413 1.712-3.29 2.506-5.904 2.506h-6.007V18.86Zm-7.264 32.486h13.99c4.28 0 7.82-1.276 10.237-3.697 3.99-3.989 3.958-9.07 3.924-14.454a204.007 204.007 0 0 1 0-2.958c.032-5.208.066-10.13-3.924-14.12-2.417-2.417-5.957-3.695-10.238-3.695h-11.203a2.789 2.789 0 0 0-2.786 2.787v36.137Z" id="Fill-18" fill="#2CCCBF"/><path d="M143.784 44.906V12.422h-4.414c-1.503 0-2.724 1.245-2.724 2.773v36.15h24.284l3.045-6.439h-20.19Z" id="Fill-20" fill="#2CCCBF"/><path d="M202.559 31.883c0-7.312.335-9.264 1.89-10.999 1.172-1.353 3-2.132 5.017-2.132 2.012 0 3.774.758 4.966 2.132 1.48 1.655 1.942 3.39 1.942 11 0 7.612-.463 9.345-1.943 11-1.19 1.374-2.953 2.13-4.965 2.13-2.016 0-3.845-.777-5.02-2.133-1.552-1.732-1.887-3.684-1.887-10.998Zm18.054 14.22c2.845-3.612 2.876-8.03 2.876-13.95v-.539c0-6.511.002-11.214-3.78-15.013-2.799-2.812-6.15-4.179-10.243-4.179-4.129 0-7.497 1.367-10.295 4.179-3.73 3.745-3.73 8.362-3.726 14.75v1.063c-.003 6.39-.005 11.007 3.726 14.755 2.8 2.808 6.168 4.177 10.295 4.177h15.793v-5.243h-4.646Z" id="Fill-22" fill="#2CCCBF"/><path d="M201.242 79.314v-6.436H178.37c-1.544 0-2.8 1.246-2.8 2.778v36.145h25.672v-6.438h-18.357v-9.97h15.632v-6.438h-15.632v-9.64h18.357Z" id="Fill-24" fill="#FFF"/><path d="M317.198 103.341c-1.195 1.372-2.965 2.13-4.983 2.13-2.024 0-3.862-.779-5.041-2.133-1.559-1.734-1.896-3.686-1.896-11 0-7.31.337-9.263 1.9-10.998 1.175-1.353 3.013-2.13 5.037-2.13 2.018 0 3.788.756 4.984 2.131 1.487 1.655 1.95 3.39 1.95 10.998 0 7.614-.463 9.347-1.951 11.002m-4.983-30.463c-4.147 0-7.529 1.368-10.338 4.18-3.745 3.745-3.744 8.362-3.74 14.75v1.062c-.004 6.389-.005 11.006 3.74 14.755 2.81 2.81 6.193 4.176 10.338 4.176 4.107 0 7.47-1.366 10.283-4.178 3.798-3.8 3.796-8.504 3.796-15.015v-.537c0-6.513.002-11.216-3.798-15.013-2.809-2.812-6.172-4.18-10.28-4.18" id="Fill-26" fill="#FFF"/><path d="m400 111.801-12.53-20.814.062-.107 10.463-18.002h-6.712c-.997 0-1.918.538-2.408 1.411l-8.95 15.955V72.878h-4.48a2.778 2.778 0 0 0-2.774 2.776v36.147h7.253V91.693l11.751 20.108H400Z" id="Fill-28" fill="#FFF"/><path d="M163.975 111.801V72.878h-4.388c-1.5 0-2.719 1.246-2.719 2.778v21.876l-13.84-24.654h-3.661c-1.5 0-2.721 1.246-2.721 2.778v36.145h7.109V87.09l13.84 24.712h6.38Z" id="Fill-30" fill="#FFF"/><path d="M240.166 72.878h-24.104c-3.54 0-6.43 2.867-6.538 6.436h11.74v32.487h7.159V79.314h5.203c3.54 0 6.431-2.869 6.54-6.436" id="Fill-32" fill="#FFF"/><path d="M343.34 79.314h7.279c3.332 0 5.658 2.22 5.658 5.4s-2.326 5.4-5.658 5.4h-7.279v-10.8Zm12.066 32.487h8.155l-9.605-16.291.275-.06c.836-.18 1.577-.378 2.27-.6 4.308-1.596 6.886-5.385 6.886-10.136 0-6.97-5.052-11.836-12.283-11.836h-12.237c-1.453 0-2.635 1.21-2.635 2.694v36.23h7.108v-15.69h3.08l8.986 15.69Z" id="Fill-34" fill="#FFF"/><path d="m285.426 73.704-6.036 24.568-6.67-23.167a3.071 3.071 0 0 0-2.947-2.227h-.8a3.06 3.06 0 0 0-2.939 2.22l-6.672 23.177-6.185-25.397h-6.142c-.704 0-1.216.67-1.036 1.352l9.966 37.571h6.065l7.346-24.37.196.65 7.151 23.72h6.063l10.382-38.923h-6.692c-.499 0-.931.341-1.05.826" id="Fill-36" fill="#FFF"/></g></g></g></g></svg>