<svg viewBox="0 0 2080 1625" xmlns="http://www.w3.org/2000/svg" xml:space="preserve" style="fill-rule:evenodd;clip-rule:evenodd;stroke-linejoin:round;stroke-miterlimit:2"><g id="Слой_2"><g id="Слой_1-2"><path d="m1455.29 1342.5-401.75-231.333a14.809 14.809 0 0 1-7.452-12.842 14.81 14.81 0 0 1 8.035-13.158l50.542-26.084a14.97 14.97 0 0 1 14.208.334l415.25 239.125a14.848 14.848 0 0 1 7.444 12.862c0 5.54-3.104 10.637-8.027 13.179l-36.667 18.875a43.371 43.371 0 0 1-41.583-.958Z" style="fill-rule:nonzero"/><path d="m1479.92 1298.96-342.417-197.666c-29.167-16.667-52.542-61.667-52.542-100.334V45.835c0-38.666 23.542-56.458 52.542-39.708l342.417 198.042c29.166 16.666 52.541 61.666 52.541 100.333v955c0 38.458-23.541 56.208-52.541 39.458Z" style="fill:#83d7bc;fill-rule:nonzero"/><path d="m1485.79 1316.17 27.125-13.709-26-44.583-1.125 58.292ZM1079.75 15.833l24.958-13.083-5.041 36.792-19.917-23.709Z" style="fill:#b1b4c4;fill-rule:nonzero"/><path d="m1458.33 1309.88-342.375-197.667c-29.166-16.666-52.5-61.666-52.5-100.333V56.922c0-38.667 23.5-56.459 52.5-39.709L1458.33 214.88c29.167 16.667 52.5 61.667 52.5 100.333v955c-.208 38.667-23.708 56.417-52.5 39.667Z" style="fill:#616e84;fill-rule:nonzero"/><path d="M1506.96 313.5v954.917c0 38.708-23.5 56.458-52.5 39.75l-134.25-77.542-41.666-24.083-166.459-96.042c-29.166-16.667-52.5-61.667-52.5-100.375V55.208c0-38.541 23.5-56.458 52.5-39.75l342.375 197.667c28.875 16.75 52.5 61.875 52.5 100.375Z" style="fill:#20232d;fill-rule:nonzero"/><path d="M1482.29 307.958v930.084c0 23.416-16.459 32.958-36.75 21.208l-107.042-61.792-9.333-5.458-3.167-1.833-23.125-13.375-66.958-38.584-27.792-16.041-11.167-6.459-76.125-43.791c-20.291-11.709-36.708-40.25-36.708-63.667V78.167c0-23.459 16.417-32.959 36.708-21.25l133.667 77.208v.375a63.422 63.422 0 0 0 28.833 49.542c15.834 9.041 28.667 1.708 28.667-16.667v-.417l133.667 77.209c20.166 11.833 36.625 40.333 36.625 63.791Z" style="fill:#fefefe;fill-rule:nonzero"/><path d="M1280.74 148.443c4.261-2.449 11.156 1.54 15.388 8.902 4.231 7.363 4.206 15.329-.055 17.778-4.262 2.449-11.157-1.54-15.388-8.903-4.231-7.362-4.207-15.328.055-17.777Z" style="fill:#2b303f"/><path d="M1283.33 166.375a10.13 10.13 0 0 1-4.583-8.042c0-2.916 2.042-4.166 4.542-2.625a10.008 10.008 0 0 1 4.541 7.875c0 3.084-2.041 4.25-4.5 2.792Z" style="fill-opacity:.1;fill-rule:nonzero"/><path d="M1520.83 443.292c-2.791 1.625-5.083 0-5.083-3.834V398.75a12.217 12.217 0 0 1 5.083-9.667c2.792-1.583 5.042 0 5.042 3.834v40.708a12.093 12.093 0 0 1-5.042 9.667ZM1520.83 510c-2.791 1.625-5.083 0-5.083-3.792v-40.75a12.214 12.214 0 0 1 5.083-9.666c2.792-1.584 5.042 0 5.042 3.833v40.708a12.052 12.052 0 0 1-5.042 9.667Z" style="fill:#757b89;fill-rule:nonzero"/><path d="M1391.67 849.5a36.606 36.606 0 0 1 16.666 28.667v28.375c0 10.541-7.5 14.791-16.666 9.458l-226.834-130.917a36.605 36.605 0 0 1-16.666-28.666v-28.375c0-10.542 7.541-14.792 16.666-9.5L1391.67 849.5Z" style="fill:#83d7bc;fill-rule:nonzero"/><path d="M2008.33 1501.54c49.292 28.458 91.125 25.5 45.459 59.125-117.25 86.291-173.625 72.458-222.917 44l-214.5-123.875c-49.333-28.459-19.833-91.667 29.167-120.042s98.958-11.542 148.291 16.958l214.5 123.834Z" style="fill-rule:nonzero"/><path d="M2081.5 1183.33c0 1.292-.208 2.625-.458 3.959a32.714 32.714 0 0 1-.792 3.208c-.333 1.25-.625 2.5-1.083 3.75-.459 1.25-.834 2.042-1.292 3.083-.458 1.042-1.125 2.625-1.833 3.917-.709 1.292-1.125 1.875-1.667 2.792-.542.916-1.875 2.958-2.958 4.375-1.084 1.416-2.125 2.791-3.334 4.166-.291.292-.541.625-.833.959-1.625 1.791-3.417 3.5-5.292 5.208-1.208 1.083-2.541 2.125-3.875 3.208-1.333 1.084-2.25 1.875-3.5 2.75s-3 2.042-4.541 3.042c-1.542 1-3.084 2.083-4.792 3.042a126.815 126.815 0 0 1-11.875 6.041l-3.583 1.5a113.187 113.187 0 0 1-9.875 3.75c-1.209.417-2.417.875-3.625 1.25a155.61 155.61 0 0 1-6.5 1.875c-2.334.625-3.25.917-4.959 1.334-1.708.416-4.625 1-6.958 1.458-1.583.333-3.125.708-4.75.958a202.8 202.8 0 0 1-14.292 2l-4.5.375c-2.833.25-5.666.459-8.333.584h-18.125c-1.917 0-4.167 0-6.375-.334l-5.833-.458-6.25-.708-5.625-.792-6.709-1.167-5.208-1.041c-2.625-.584-5.208-1.25-7.792-1.917l-4.166-1.167c-4.625-1.375-9.125-2.875-13.5-4.583-2.167-.833-4.167-1.75-6.334-2.667-1.083-.5-2.208-.916-3.25-1.416-3.166-1.542-6.291-3.125-9.25-4.834L1653 1106.955c-24.792-14.333-37.167-33.125-37.125-51.916l-.917 335.791c0 18.792 12.5 37.5 37.125 51.875l214.209 123.959c3 1.708 6.083 3.291 9.25 4.791 1.041.5 2.208.959 3.291 1.417 1.875.833 3.709 1.708 5.625 2.458l.667.25c4.375 1.709 8.875 3.209 13.5 4.542l1.083.375 3.25.792c2.584.666 5.167 1.333 7.792 1.916.708 0 1.375.375 2.083.5l3.167.542c2.208.417 4.417.833 6.667 1.167l2.666.458c.959 0 1.959.208 2.959.333 2.083.292 4.166.5 6.291.709l2.959.333h2.833l6.375.333h18.125c2.875 0 5.667-.333 8.333-.541l3.459-.25h1.041a204.57 204.57 0 0 0 14.334-2h.666c1.375-.25 2.667-.625 4.167-.875 2.333-.445 4.667-.945 7-1.5l4.917-1.334c2.166-.583 4.375-1.166 6.5-1.833l1.375-.417c.791-.25 1.458-.583 2.25-.833a182.191 182.191 0 0 0 9.875-3.75l3.625-1.542a126.486 126.486 0 0 0 11.875-6l1.5-.916c1.166-.709 2.166-1.459 3.25-2.167 1.083-.708 3.125-1.958 4.541-3 1.417-1.042 2.375-1.875 3.5-2.792 1.125-.916 2.667-2.083 3.875-3.208l.792-.625c1.583-1.5 3.083-3 4.5-4.542l.833-1c.834-.958 1.709-1.875 2.459-2.833.75-.958.541-.875.875-1.292a58.41 58.41 0 0 0 2.958-4.416c.375-.584.875-1.209 1.208-1.834.178-.307.331-.627.459-.958a36.9 36.9 0 0 0 1.833-3.917c.333-.75.792-1.5 1.083-2.25.292-.75 0-.541 0-.791.459-1.25.75-2.542 1.084-3.792.293-.834.544-1.682.75-2.542v-.666c0-1.334.333-2.625.416-3.959.084-1.333.292-1.708.334-2.583v-1.125l.958-335.75c.058 1.194.058 2.39 0 3.583Z" style="fill:#83d7bc;fill-rule:nonzero"/><path d="M2044.71 1127.88c49.25 28.458 49.542 74.625.542 103.083-49 28.459-128.708 28.5-178 0l-214.583-123.875c-49.25-28.458-49.542-74.625-.5-103.125 49.041-28.5 128.666-28.458 177.958 0l214.583 123.917Z" style="fill:#42c299;fill-rule:nonzero"/><path d="m1724.38 1392.58 29.167-79.166a70.3 70.3 0 0 1-14.292-39.417c0-16.25 9.083-25 21.667-22.875a30.957 30.957 0 0 1 11.208 4.167c18.083 10.458 32.75 35.708 32.667 56.541 0 12.959-5.792 21.042-14.5 22.792l21.833 85.667 6.833 27-94.583-54.709Z" style="fill:#3a4151;fill-rule:nonzero"/><path d="m1744.21 1381 29.167-79.167a69.714 69.714 0 0 1-14.292-39.416 33.548 33.548 0 0 1 1.834-11.292 30.957 30.957 0 0 1 11.208 4.167c18.083 10.458 32.75 35.708 32.667 56.541 0 12.959-5.792 21.042-14.5 22.792l21.833 85.667L1744.21 1381ZM1779.92 885.542a40.086 40.086 0 0 0-5.625 4.166l-.917.834a30.7 30.7 0 0 0-4.167 5.208l-1.125 1.833-.25.459a6.554 6.554 0 0 0-.583 1.041 29.057 29.057 0 0 0-1.708 3.834c-.477 1.317 0 0 0 .25a40.537 40.537 0 0 0-2.209 9.666v.375a39.058 39.058 0 0 0-.333 5.5l-.292 112.5v40.542a66.665 66.665 0 0 1-31.041 7.083V936.875c.019-2.947.284-5.888.791-8.792 0-.583.209-1.208.375-1.833a20.51 20.51 0 0 1 .625-2.417c.258-.792 0-.25 0-.375.227-.735.492-1.458.792-2.166a.587.587 0 0 1 0-.375c.25-.584.458-1.125.708-1.667.126-.478.308-.94.542-1.375a3.12 3.12 0 0 0 .375-.625 21.98 21.98 0 0 1 1.833-3.208c.7-1.017 0 0 .209 0a31.468 31.468 0 0 1 2-2.667c.75-.833 1.5-1.667 2.291-2.458.241-.342.554-.627.917-.834a28.898 28.898 0 0 1 2.667-2.208 13.694 13.694 0 0 1 2.583-1.667 7.24 7.24 0 0 1 .833-.625l30.709-18.041Z" style="fill:#323944;fill-rule:nonzero"/><path d="M2007.83 1056.38v3.833l-.291 111.375v40.959a67.472 67.472 0 0 1-30.667 6.875h-.375v-54.792l.208-86.333a117.3 117.3 0 0 0-.75-13.667c-.25-2.208-.541-4.5-.916-6.792v-1c-.292-1.75-.584-3.583-1-5.333a2.418 2.418 0 0 0 0-.75c-.917-4.417-2-8.917-3.292-13.417 0-.625-.375-1.166-.542-1.75-.583-2-1.208-3.916-1.875-5.875-.666-1.958-1.541-4.583-2.375-6.875-.833-2.291-1.625-4.166-2.458-6.25-1.042-2.75-2.292-5.5-3.5-8.333a4.16 4.16 0 0 1-.375-.917c-.088-.319 0-.208-.25-.375-2.208-4.875-4.625-9.833-7.292-14.708-1-2-2.083-3.917-3.208-5.875-1.458-2.625-2.917-5.208-4.5-7.792-1.583-2.583-3.542-5.416-5.292-8.083-.833-1.375-1.666-2.75-2.583-4.167l-.917-1.375a3.763 3.763 0 0 0-.541-.666 323.863 323.863 0 0 0-20.417-26.875c-.458-.584-1-1.125-1.458-1.667-3.375-4.167-6.792-7.875-10.375-11.583a14.766 14.766 0 0 0-1.584-1.667c-1.833-1.917-3.666-3.833-5.583-5.75-1.917-1.917-4.417-4.417-6.708-6.542-3.459-3.208-6.875-6.416-10.459-9.541a306.56 306.56 0 0 0-19-15.167l-3.791-2.75a257.079 257.079 0 0 0-21.75-14.042c-2.542-1.458-4.959-2.75-7.417-4.166-2.458-1.417-5.5-2.834-8.333-4.167-1.875-.917-3.792-1.75-5.625-2.583l-2.375-1.084-2.834-1.125c-5.083-2.125-10.125-4.166-15.083-5.5a3.704 3.704 0 0 0-.583-.083l-1.834-.458c-.833-.334-1.666-.459-2.416-.709a34.69 34.69 0 0 0-3.042-.833h-.25l-2.042-.458a66.331 66.331 0 0 0-5.291-1.125c-.959-.25-2.042-.375-3.042-.542a1.239 1.239 0 0 0-.542 0l-3.708-.625h-.875a65.675 65.675 0 0 0-6.917-.625 39.734 39.734 0 0 0-4.416-.25h-2.209a59.686 59.686 0 0 0-6.75.333h-2.125a16.87 16.87 0 0 0-2.125.25c-.645.05-1.285.148-1.916.292h-.209c-.541 0-1.083.25-1.625.292-1.291.25-2.583.458-3.875.833a1.985 1.985 0 0 0-.625 0 2.368 2.368 0 0 0-1.041.25c-.939.201-1.858.48-2.75.833-.721.145-1.431.34-2.125.584-.694.243-.25 0-.334 0-.083 0 0 0 0 0a39.1 39.1 0 0 0-4.5 1.833l-.541.208a30.07 30.07 0 0 0-2.834 1.459c-.639.246-1.252.553-1.833.916l31.125-18.083a59.745 59.745 0 0 1 9.792-4.5.631.631 0 0 1 .375 0 62.574 62.574 0 0 1 8.333-2.292l.917-.25h1.041c1.917-.375 3.917-.583 5.875-.833h1.709c2.333 0 4.708-.292 7.208-.292h7.375c1 0 2.042.25 3.042.292l3.916.417h.375c1.292 0 2.584.458 3.959.625 1.375.166 1.916.291 2.875.541h.333c2.292.459 4.625 1 7.083 1.584 2.292.541 4.625 1.208 6.917 1.916a.665.665 0 0 1 .375 0c.809.208 1.603.472 2.375.792 1.542.458 3 .917 4.417 1.458.29.059.57.157.833.292.996.292 1.971.654 2.917 1.083 1.125.459 2.291.834 3.5 1.292.442.229.902.424 1.375.583l3.125 1.375c.916.375 1.833.709 2.75 1.167.718.282 1.414.616 2.083 1 1.113.432 2.199.933 3.25 1.5.708.292 1.375.625 2.083 1 .709.375 1.917.917 2.792 1.375.875.458 2.167 1.125 3.208 1.75a8.822 8.822 0 0 1 1.542.75l5.958 3.292c.584.375 1.209.666 1.75 1.083 2.667 1.5 5.25 3.125 7.834 4.792 1.333.75 2.625 1.666 3.916 2.5.63.477 1.283.922 1.959 1.333l2 1.333a339.822 339.822 0 0 1 7.875 5.584l2.416 1.916c.75.542 1.542 1.042 2.292 1.667.75.625 2.125 1.625 3.208 2.542 2.75 2.041 5.334 4.166 8 6.458l.834.75c.515.412 1.002.857 1.458 1.333 1.833 1.5 3.667 3.042 5.5 4.709 1.833 1.666 3.958 3.583 5.875 5.5.387.289.737.625 1.042 1 .214.107.4.264.541.458a242.143 242.143 0 0 1 7.125 7l3.625 3.833c.542.5 1.084 1.125 1.625 1.667.542.542.917.917 1.375 1.458a481.607 481.607 0 0 1 6.167 6.834c1 1.083 1.917 2.25 2.833 3.291l1.375 1.667c.542.625 1.125 1.25 1.584 1.833 2.083 2.459 3.958 4.834 5.875 7.25.708.917 1.375 1.834 2.125 2.75a41.46 41.46 0 0 1 1.708 2.209l2.208 2.916c1.834 2.5 3.584 5.125 5.417 7.625l2.042 2.959.541.791c1.084 1.5 2 3.209 3.042 4.709 2 3.208 4.167 6.333 5.958 9.458l.709 1.167c2.208 3.583 4.166 7.25 6.166 10.875 0 .333.292.625.459.916.219.376.414.766.583 1.167.917 1.75 1.833 3.417 2.708 5.167a313.71 313.71 0 0 1 2.584 5.291c.458.959.833 1.959 1.291 2.875.153.294.279.6.375.917.25.458.459 1 .709 1.458.75 1.667 1.416 3.292 2.125 4.959.708 1.666 1.291 3.208 1.958 4.791.333.834.625 1.709.917 2.542.075.291.187.571.333.833.165.511.36 1.012.583 1.5.542 1.709 1.167 3.292 1.709 4.917a110.66 110.66 0 0 1 1.5 4.875c.25.75.458 1.5.708 2.292.25.791 0 .541.208.833.213.573.394 1.157.542 1.75.458 1.667.917 3.292 1.292 4.875.375 1.583.75 3.125 1.083 4.667 0 .666.292 1.458.458 2.125-.02.235-.02.472 0 .708 0 .583.25 1.208.334 1.75.291 1.5.541 3.042.833 4.5.292 1.458.375 2.875.625 4.167.25 1.291 0 1.75.208 2.666.04.179.04.364 0 .542.021.361.021.723 0 1.083 0 1.375.25 2.792.334 4.167.083 1.375.583 3.208.666 4.5Z" style="fill:#323944;fill-rule:nonzero"/><path d="m1976.79 1078.29-.209 86.333v54.792c-18.625 0-34.541-6.667-41.666-16.042v-22.792l.375-126.333c0-42.708-46.375-105.708-101.542-137.5-24.792-14.333-47.875-20.333-65.833-18.667a46.252 46.252 0 0 0-18.375 5.25 7.25 7.25 0 0 0-.834.625 14.363 14.363 0 0 0-2.583 1.667 18.796 18.796 0 0 0-2.667 2.208 2.835 2.835 0 0 0-.916.834 14.28 14.28 0 0 0-2.292 2.458 14.911 14.911 0 0 0-2 2.667c-.565.961 0 0-.208 0a22.078 22.078 0 0 0-1.834 3.208 8.659 8.659 0 0 0-.916 2 6.455 6.455 0 0 0-.709 1.667.587.587 0 0 0 0 .375 15.134 15.134 0 0 0-.833 2.541 20.51 20.51 0 0 0-.625 2.417 15.88 15.88 0 0 0-.375 1.833 53.008 53.008 0 0 0-.792 8.792v141.958c-18.375 0-34.25-6.333-41.666-15.5v-23.875l-.292-126.708c0-29.667 11.75-50.333 31.25-60.625a30.166 30.166 0 0 1 2.833-1.458l.542-.209a39.026 39.026 0 0 1 4.5-1.833c1.537-.517 0 0 0 0a13.784 13.784 0 0 1 2.458-.75 17.256 17.256 0 0 1 2.75-.833c.324-.162.68-.247 1.042-.25.207-.033.418-.033.625 0l1.917-.417a16.308 16.308 0 0 1 1.958-.417c.542 0 1.083-.208 1.625-.291h.208a13.206 13.206 0 0 1 1.917-.292 16.666 16.666 0 0 1 2.125-.25 11.783 11.783 0 0 1 2.125 0 59.454 59.454 0 0 1 6.75-.333h2.208a39.5 39.5 0 0 1 4.417.25 65.41 65.41 0 0 1 6.917.625c1.539.137 3.069.359 4.583.666a1.27 1.27 0 0 1 .542 0c1 0 2.083.292 3.041.542 1.75.292 3.459.667 5.292 1.125 1.833.458 3.5.833 5.333 1.375.75.25 1.584.375 2.417.708l2.458.667a170.24 170.24 0 0 1 15.084 5.5c1.791.667 3.458 1.458 5.208 2.208 1.75.75 3.75 1.667 5.625 2.584l4.917 2.458c1.041.583 2.208 1.125 3.25 1.667 2.458 1.375 4.875 2.666 7.416 4.166a256.759 256.759 0 0 1 21.75 14.042l3.792 2.75a306.858 306.858 0 0 1 19 15.167c3.583 3.125 7 6.333 10.458 9.541 2.292 2.125 4.5 4.167 6.709 6.542 2.208 2.375 3.75 3.833 5.583 5.75.57.514 1.1 1.071 1.583 1.667 3.584 3.708 7 7.625 10.375 11.583.459.542 1 1.083 1.459 1.667a323.852 323.852 0 0 1 20.416 26.875c.533.646 1.02 1.328 1.459 2.041 2.75 4.167 5.333 8.084 7.875 12.209 1.583 2.583 3.041 5.166 4.5 7.791 1.125 1.959 2.208 3.875 3.208 5.875 2.667 4.875 5.083 9.834 7.292 14.709.25.458.458.916.625 1.291 1.208 2.75 2.458 5.5 3.5 8.334a278.982 278.982 0 0 1 2.458 6.25 119.44 119.44 0 0 1 2.375 6.875c.708 2.291 1.292 3.875 1.875 5.875 0 .583.375 1.125.542 1.75 1.291 4.5 2.458 9 3.291 13.416.04.249.04.502 0 .75.417 1.75.709 3.584 1 5.334v1c.375 2.291.667 4.5.917 6.791a117.416 117.416 0 0 1 1.417 13.334Z" style="fill:#3a4151;fill-rule:nonzero"/><path d="M1412.71 515.167a15.968 15.968 0 0 1 7.167 12.5l-.583 208.041c0 18.334-13.084 25.792-29.167 16.667l-202.625-117.167a63.878 63.878 0 0 1-28.875-50l.583-208.041c0-4.584 3.292-6.459 7.25-4.167l21.75 12.5v-33.333c0-64.25 45.834-90.25 101.709-57.959 55.875 32.292 101.25 110.792 101.041 175v33.334l21.75 12.625Zm-65.208-37.5v-33.334c0-36.75-25.792-81.583-57.708-100-31.917-18.416-58.042-3.583-58.125 33.125v33.334l115.875 66.666m-36.709 152.917-4.458-50c7.458-1.917 11.917-9.167 11.917-19.917a63.674 63.674 0 0 0-28.875-50c-15.959-9.208-29.167-1.791-29.167 16.667a60.421 60.421 0 0 0 11.792 33.583l-4.709 44.584a13.715 13.715 0 0 0 1.75 7.5 15.628 15.628 0 0 0 5.417 5.916l29.167 16.667a5.047 5.047 0 0 0 5.416.333 5.796 5.796 0 0 0 1.834-5.416" style="fill:#42c299;fill-rule:nonzero"/><path d="M1397.58 972.667a23.18 23.18 0 0 1 10.75 18.166V1020c0 6.667-4.791 9.375-10.583 6.042L1158.33 887.917a23.309 23.309 0 0 1-10.541-18.209v-29.166c0-6.709 4.791-9.375 10.583-6l239.208 138.125Z" style="fill:#83d7bc;fill-rule:nonzero"/></g></g><circle cx="966.644" cy="614.602" r="59.267" style="fill:#d78e72"/><path d="M945.246 965.299c-.747 0-1.497-.033-2.25-.099-13.686-1.143-24.341-12.725-24.341-26.458 0-1.744.171-3.483.512-5.193.173-.852.391-1.694.652-2.523L832.345 827.57c-5.836-6.957-6.422-16.988-1.435-24.576l.159-.193 78.737-77.638a22.765 22.765 0 0 1 15.98-6.553c12.486 0 22.76 10.274 22.76 22.76a22.77 22.77 0 0 1-7.079 16.497l-57.026 54.214 62.43 100.199a25.12 25.12 0 0 1 3.521.433c12.367 2.468 21.353 13.425 21.353 26.036 0 14.546-11.954 26.523-26.499 26.55ZM1064.26 1439.46h29.585l14.073-114.109-43.664.003.006 114.106Z" style="fill:#d78e72;fill-rule:nonzero"/><path d="m1056.71 1429.8 58.264-.002c20.367 0 37.127 16.76 37.127 37.128v1.207l-95.39.003-.001-38.336Z" style="fill:#2f2e41;fill-rule:nonzero"/><path d="m770.212 1398.56 25.419 15.134 70.474-90.843-37.518-22.337-58.375 98.046Z" style="fill:#d78e72;fill-rule:nonzero"/><path d="m768.669 1386.39 50.06 29.806.002.001a37.165 37.165 0 0 1 18.133 31.901 37.13 37.13 0 0 1-5.227 18.995l-.618 1.037-81.962-48.8 19.612-32.94Z" style="fill:#2f2e41;fill-rule:nonzero"/><path d="M1100.82 1399.15h-33.127c-5.528.009-10.223-4.213-10.798-9.711l-33.397-313.932a3.633 3.633 0 0 0-3.6-3.237c-1.42 0-2.714.835-3.299 2.129l-60.249 133.409-106.667 173.935c-2.841 4.588-8.682 6.414-13.63 4.26l-42.613-18.748a10.879 10.879 0 0 1-6.485-9.941c0-1.961.531-3.886 1.536-5.57l98.057-164.187 30.073-138.337c-9.458-59.992 31.09-149.184 31.501-150.08l.201-.436 111.691-43.655.56.686c44.048 144.549 70.888 300.108 51.07 533.466-.504 5.581-5.221 9.916-10.824 9.949Z" style="fill:#5d5c71;fill-rule:nonzero"/><path d="m943.825 913.326-.52-1.094c-.249-.523-25.084-52.903-44.229-108.887a82.613 82.613 0 0 1 5.726-66.178 83.514 83.514 0 0 1 53.234-40.935c40.093-9.61 81.608 11.81 97.01 50.055 15.186 37.975 10.346 78.509 5.791 110.385l-.091.639-.58.278-116.341 55.737Z" style="fill:#83d7bc;fill-rule:nonzero"/><path d="M1038.5 581.123h-94.11v-41.022c20.656-8.206 40.869-15.185 53.088 0 22.504 0 41.022 18.518 41.022 41.022Z" style="fill:#2f2e41;fill-rule:nonzero"/><path d="M939.184 532.862c-56.261 0-72.008 70.52-72.008 110.304 0 22.188 10.034 30.123 25.802 32.808l5.568-29.698 13.042 30.976c4.429.022 9.082-.063 13.906-.153l4.422-9.105 9.861 8.942c39.494.059 71.414 5.816 71.414-33.77 0-39.784-13.81-110.304-72.007-110.304Z" style="fill:#2f2e41;fill-rule:nonzero"/><path d="M1189.26 611.788c.358.655.688 1.329.991 2.021a26.542 26.542 0 0 1 2.273 10.747c0 11.578-7.574 21.883-18.623 25.339-.831.257-1.675.47-2.528.639l-48.851 126.365c-3.307 8.457-11.83 13.78-20.88 13.042l-.246-.047-105.882-31.875c-9.589-2.887-16.199-11.779-16.199-21.794 0-12.485 10.275-22.76 22.761-22.76 2.362 0 4.709.368 6.958 1.09l74.918 24.053 58-102.827a25.3 25.3 0 0 1-1.307-3.298 26.536 26.536 0 0 1-1.21-7.922c0-14.564 11.985-26.549 26.55-26.549a26.58 26.58 0 0 1 23.275 13.776Z" style="fill:#d78e72;fill-rule:nonzero"/><path d="M2554.59 1470.91h-491.089a2.57 2.57 0 0 1-2.558-2.558 2.57 2.57 0 0 1 2.558-2.557h491.089a2.57 2.57 0 0 1 2.558 2.557 2.57 2.57 0 0 1-2.558 2.558Z" style="fill:#ccc;fill-rule:nonzero"/></svg>