<svg xmlns="http://www.w3.org/2000/svg" viewBox="0 0 596.11 450"><defs><linearGradient id="Sfumatura_senza_nome" x1="-69.57" y1="1016.28" x2="-69.15" y2="1016.28" gradientTransform="matrix(0 -193.96 -193.96 0 197642 -13334.6)" gradientUnits="userSpaceOnUse"><stop offset="0" stop-color="gray" stop-opacity=".25"/><stop offset=".54" stop-color="gray" stop-opacity=".12"/><stop offset="1" stop-color="gray" stop-opacity=".1"/></linearGradient><style>.cls-1{fill:#fff}.cls-1{fill-opacity:.4}.cls-2{fill:#d5d6e0}.cls-3{fill:#e9eaf4}.cls-4{fill-opacity:.05}.cls-5{fill:#42c299}.cls-10,.cls-6{fill:#83d7bc}.cls-7{fill:#129385}.cls-8{fill:#e3fffd}.cls-9{fill:#46beae}.cls-10{fill-rule:evenodd}.cls-12{fill:#cc8b09}.cls-14{fill:#e8a30a}.cls-19{fill:#e5e5e5}.cls-20{fill:#f4f4f4}.cls-22{fill:#2b303f}.cls-26{fill:#fefefe}.cls-28{fill:#65617d}.cls-29{fill:#3f3d56}.cls-30{fill-opacity:.1}.cls-31{fill:#da999d}.cls-35{fill:#e6e8ec}.cls-38{fill:#a0616a}.cls-39{fill:#2f2e41}</style></defs><g id="Livello_2" data-name="Livello 2"><g id="Livello_1-2" data-name="Livello 1"><g id="Слой_2" data-name="Слой 2"><g id="Слой_1-2" data-name="Слой 1-2"><path class="cls-1" d="m495.21 170.71-247.38 142.8-142.67 82.38 3.17 1.82L251 315.32l247.33-142.8-3.14-1.81Z"/><path class="cls-1" d="m471.86 331.65-3.22 1.84-145.17-83.79-56-32.33-145.14-83.81 3.2-1.87 145.19 83.81 56 32.33 145.14 83.82Z"/><path class="cls-1" d="m155.62 194-61.09-35.28c-2.84-1.64-2.49-4.51.8-6.41L154.82 118c3.29-1.89 8.25-2.1 11.1-.46L227 152.77c2.84 1.64 2.48 4.52-.8 6.41l-59.5 34.4c-3.27 1.85-8.23 2.05-11.08.42Z"/><path class="cls-2" d="m233.3 148.74-3 .92-60-34.64c-2.84-1.64-7.82-1.44-11.1.46l-59.48 34.35-.15.1-2.53-.8v3.94a1.62 1.62 0 0 0 0 .44v.32a3.42 3.42 0 0 0 1.87 2.42L160 191.52c2.84 1.64 7.82 1.43 11.1-.46l59.49-34.35a4.67 4.67 0 0 0 2.69-3.43Z"/><path class="cls-3" d="m230.61 152.53-35.3 20.39-1.58.91-22.62 13c-3.28 1.9-8.25 2.1-11.1.46l-61.09-35.22c-2.85-1.65-2.49-4.5.8-6.41l22.61-13 1.58-.92 35.3-20.37c3.28-1.91 8.26-2.11 11.1-.47l61.09 35.27c2.85 1.59 2.49 4.47-.79 6.36Z"/><ellipse class="cls-4" cx="161.33" cy="149.64" rx="39.8" ry="22.98"/><path class="cls-5" d="M203.89 147.16v-10.32l-1.65 3.67c-1.82-3.54-5.16-6.88-10-9.68-15.55-9-40.75-9-56.29 0a25.19 25.19 0 0 0-9.7 9.16l-2-2.58v9.74c0 5.86 3.9 11.73 11.66 16.2 15.54 9 40.74 9 56.29 0 7.8-4.46 11.66-10.35 11.69-16.19Z"/><ellipse class="cls-6" cx="164.09" cy="137.24" rx="39.8" ry="22.98"/><path class="cls-5" d="M204.32 132.74v-10.25l-1.64 3.67c-1.82-3.54-5.16-6.89-10-9.67-15.56-9-40.75-9-56.29 0a25.14 25.14 0 0 0-9.71 9.13l-2-2.64v9.76c0 5.86 3.9 11.71 11.66 16.18 15.54 9 40.73 9 56.29 0 7.79-4.47 11.67-10.32 11.69-16.18Z"/><ellipse class="cls-6" cx="164.53" cy="122.84" rx="39.8" ry="22.98"/><path class="cls-7" d="M193 123.82c-.38 3.88-3.15 7.66-8.28 10.66-11.13 6.42-29.18 6.42-40.3 0-5.13-3-7.91-6.78-8.29-10.66-.47-4.52 2.3-9.16 8.29-12.62 11.12-6.43 29.17-6.43 40.3 0 5.94 3.46 8.71 8.1 8.28 12.62Z"/><path class="cls-8" d="M193 123.82c-.38 3.88-3.15 7.66-8.28 10.66-11.13 6.42-29.18 6.42-40.3 0-5.13-3-7.91-6.78-8.29-10.66.38-3.87 3.16-7.65 8.29-10.64 11.12-6.43 29.17-6.43 40.3 0 5.08 2.96 7.81 6.82 8.28 10.64Z"/><path class="cls-9" d="M376.57 67.1c0-22.89-16.07-50.75-35.91-62.2-9.85-5.69-18.78-6.25-25.27-2.58h-.07l-.13.08c-1 .6-8.88 5.21-9 5.28l3 .61c-3.56 4.38-4.38 9.1-4.38 17.3 0 22.9 16.08 50.75 35.91 62.2 6.25 3.61 12.14 5.16 17.26 4.87l-2.1 3.6 9.95-5.8.52-.3.27-.15c6.13-3.84 9.95-11.75 9.95-22.91Z"/><path class="cls-10" d="M306.67 8.06c14.08-8.06 36.89 5.14 50.91 29.53s14 50.76-.12 58.85-36.89-5.14-50.9-29.53-13.97-50.76.11-58.85Z"/><path class="cls-7" d="M356.66 66.88c0 16.4-11.51 23-25.72 14.84-.87-.52-1.76-1.09-2.62-1.67a.22.22 0 0 1-.09-.07c-12.92-9-23-27.45-23-42.78 0-16.41 11.51-23.05 25.71-14.86a38.41 38.41 0 0 1 4.37 3c12.15 9.38 21.35 26.88 21.35 41.54Z"/><path class="cls-8" d="M356.66 66.88c0 16.4-11.51 23-25.72 14.84-.87-.52-1.76-1.09-2.62-1.67a.22.22 0 0 1-.09-.07c-12.15-9.37-21.39-26.9-21.39-41.56 0-16.4 11.51-23 25.7-14.84.95.55 1.89 1.15 2.81 1.8 12.11 9.34 21.31 26.84 21.31 41.5Z"/><path class="cls-1" d="m518.44 190.1-61.09-35.27c-2.84-1.64-2.49-4.52.8-6.41l59.49-34.35c3.28-1.89 8.26-2.1 11.1-.46l61.09 35.27c2.85 1.64 2.5 4.52-.79 6.41l-59.55 34.35c-3.28 1.89-8.26 2.1-11.05.46Z"/><path class="cls-2" d="m596.09 144.81-3 .92-60-34.64c-2.84-1.64-7.8-1.44-11.1.46l-59.5 34.35-.14.1-2.54-.8v3.94a3.23 3.23 0 0 0 0 .44v.33a3.48 3.48 0 0 0 1.87 2.41l61.13 35.26c2.86 1.64 7.82 1.44 11.1-.46l59.5-34.35a4.67 4.67 0 0 0 2.7-3.43Z"/><path class="cls-3" d="m522.81 183.45-61.13-35.27c-2.84-1.64-2.48-4.52.8-6.41L522 107.42c3.28-1.89 8.26-2.1 11.1-.46l61.09 35.27c2.86 1.64 2.5 4.52-.8 6.41L533.87 183c-3.28 1.88-8.25 2.09-11.06.45Z"/><ellipse cx="524.09" cy="145.75" rx="39.8" ry="22.98" style="fill-opacity:.13"/><path class="cls-1" d="M503.59 393.23 442.5 358c-2.85-1.64-2.49-4.5.79-6.41l59.5-34.39c3.28-1.89 8.26-2.1 11.1-.46L575 352c2.85 1.65 2.49 4.52-.8 6.41l-59.49 34.35c-3.28 1.95-8.28 2.14-11.1.5Z"/><path class="cls-2" d="m581.28 348-3 .91-60-34.63c-2.85-1.64-7.82-1.43-11.1.46L447.69 349l-.14.1-2.54-.8v4a2.94 2.94 0 0 0 0 .42v.28a3.42 3.42 0 0 0 1.87 2.42L508 390.73c2.85 1.64 7.81 1.43 11.1-.46l59.52-34.36a4.69 4.69 0 0 0 2.69-3.44Z"/><path class="cls-3" d="m508 386.58-61.09-35.27c-2.84-1.64-2.49-4.5.8-6.41l59.5-34.3c3.28-1.9 8.25-2.1 11.1-.46l61.09 35.27c2.84 1.65 2.48 4.51-.8 6.41l-59.5 34.35c-3.29 1.86-8.3 2.07-11.1.41Z"/><ellipse class="cls-4" cx="509.3" cy="348.89" rx="39.8" ry="22.98"/><path class="cls-9" d="M551.86 346.38v-10.3l-1.65 3.68c-1.83-3.55-5.15-6.89-10-9.68-15.54-9-40.73-9-56.29 0a25.28 25.28 0 0 0-9.7 9.14l-1.94-2.58v9.74c0 5.86 3.9 11.73 11.64 16.2 15.56 9 40.75 9 56.29 0 7.79-4.47 11.63-10.34 11.65-16.2Z"/><ellipse class="cls-6" cx="512.05" cy="336.48" rx="39.8" ry="22.98"/><path class="cls-5" d="M540.49 337.48c-.4 3.87-3.15 7.65-8.28 10.64-11.13 6.43-29.18 6.43-40.3 0-5.14-2.95-7.91-6.77-8.29-10.64-.48-4.54 2.3-9.17 8.29-12.63 11.12-6.42 29.17-6.42 40.3 0 5.99 3.46 8.79 8.09 8.28 12.63Z"/><path class="cls-5" d="M540.49 337.48c-.4 3.87-3.15 7.65-8.28 10.64-11.13 6.43-29.18 6.43-40.3 0-5.14-2.95-7.91-6.77-8.29-10.64.38-3.88 3.15-7.66 8.29-10.65 11.12-6.42 29.17-6.42 40.3 0 5.13 2.95 7.88 6.73 8.28 10.65Z"/><path class="cls-12" d="M523.2 340.88a20.54 20.54 0 0 0 2-1.44 8.19 8.19 0 0 0 1.36-1.4 2.92 2.92 0 0 0 .6-1.4 2.18 2.18 0 0 0-.39-1.38 5.09 5.09 0 0 0-1.44-1.41 8.06 8.06 0 0 0-4-1.52 10.6 10.6 0 0 0-4.33.67c.75-1.35.1-2.51-2-3.5a8 8 0 0 0-2.34-.7 8.73 8.73 0 0 0-2.5 0 14.07 14.07 0 0 0-2.46.62 23.36 23.36 0 0 0-2.52 1.09l-3.46-2 .3-.12h-.5l-.26-.15-.26.15h-2.1v1.24l3.8 2.18-1.86 1.1-3.84-2.2-.6.35-1.79-.2v1.23l3.92 2.26c-.33.21-.83.5-1.49.89l-1.37.77-2-.12v1.24l2.56 1.46 1.72-1a2.72 2.72 0 0 1 2.45-.19l4.5 2.6.26-.14-.25.14 6.25 3.61c.43.35.4.67-.08 1l-1.75-.22v1.24l2.36 1.93 3.11-1.81.86-.48.84-.48 4 2.29 2.4-1.38v-1.24l-1.1.62-2.84-1.64 1.92-1.1 3.89 2.25 2.39-1.38v-1.23H525Zm-13.48-4.37-.72.41-.55.31-4.76-2.76 1.42-.85c.22-.13.53-.3.94-.5a9.62 9.62 0 0 1 1.09-.49c.32-.12.69-.23 1.1-.34a4.56 4.56 0 0 1 2.27-.07 3.77 3.77 0 0 1 1.09.41 2.17 2.17 0 0 1 .66.54.8.8 0 0 1 .18.59 2.19 2.19 0 0 1-.16.57 1.82 1.82 0 0 1-.47.6c-.23.22-.44.41-.62.56a8.43 8.43 0 0 1-.78.55ZM520.9 338a3.22 3.22 0 0 1-.42.62 4.69 4.69 0 0 1-.64.62c-.27.23-.52.42-.76.59a8.67 8.67 0 0 1-.84.56l-.8.49-.75.43a5.1 5.1 0 0 0-.58.33l-5.26-3 .72-.43 1-.59c.26-.16.63-.35 1.09-.59a12.48 12.48 0 0 1 1.29-.59c.43-.16.86-.3 1.3-.42a7.17 7.17 0 0 1 1.37-.25 5.61 5.61 0 0 1 1.29.09 3.83 3.83 0 0 1 1.23.43 2 2 0 0 1 .65.55 1.24 1.24 0 0 1 .24.58 1.2 1.2 0 0 1-.12.67Z"/><path d="M521.33 331.1a10.43 10.43 0 0 0-4.32.65c.75-1.35.1-2.52-2-3.49a7.71 7.71 0 0 0-2.34-.7 8.73 8.73 0 0 0-2.5 0 15.24 15.24 0 0 0-2.46.61 21.6 21.6 0 0 0-2.52 1.1l-3.9-2.27-2.39 1.38 3.8 2.19-1.86 1.09-3.84-2.19-2.39 1.39 3.93 2.27-1.54.87-3.28 1.89 2.56 1.48 1.71-1a2.72 2.72 0 0 1 2.45-.19l4.46 2.58a1.34 1.34 0 0 1 .27-.13l-.25.14 6.24 3.61c.45.35.42.68-.1 1l-1.73 1 2.37 1.92 3.1-1.79.87-.49.84-.49 4 2.29 2.39-1.38-3.9-2.29c.43-.24 1.09-.6 1.91-1.1l3.89 2.26 2.4-1.38-4-2.3a18.9 18.9 0 0 0 2-1.43 7.57 7.57 0 0 0 1.36-1.41 2.85 2.85 0 0 0 .6-1.39 2.19 2.19 0 0 0-.38-1.38 5.09 5.09 0 0 0-1.44-1.41 8 8 0 0 0-4.01-1.51Zm-17.64 2.19.6-.35.82-.5c.22-.13.54-.3.94-.49s.78-.37 1.09-.49.73-.25 1.1-.35a5.17 5.17 0 0 1 1.18-.17 4.43 4.43 0 0 1 1.09.1 3.32 3.32 0 0 1 1.1.41 2.4 2.4 0 0 1 .65.54.85.85 0 0 1 .18.59 2.38 2.38 0 0 1-.16.58 1.82 1.82 0 0 1-.47.6c-.23.22-.44.41-.62.56a8.43 8.43 0 0 1-.78.55l-.74.45c-.18.11-.42.26-.72.42l-.55.31-4.77-2.76Zm17.12 2.34a1.24 1.24 0 0 1 .24.58 1 1 0 0 1-.15.62 3.17 3.17 0 0 1-.41.62 4.77 4.77 0 0 1-.65.62c-.27.23-.52.42-.75.59s-.51.35-.85.56l-.79.49-.76.43-.58.32-5.26-3 .72-.43 1-.59c.26-.16.63-.35 1.09-.59a13.51 13.51 0 0 1 2.59-1 6.45 6.45 0 0 1 1.37-.24 5.6 5.6 0 0 1 1.29.08 4 4 0 0 1 1.24.43 2.22 2.22 0 0 1 .67.54Z" style="fill:#f9ca06"/><path class="cls-5" d="M552.34 332v-10.33l-1.65 3.68c-1.83-3.54-5.15-6.88-10-9.68-15.54-9-40.73-9-56.29 0a25.43 25.43 0 0 0-9.7 9.14l-1.94-2.58V332c0 5.86 3.9 11.72 11.64 16.18 15.56 9 40.75 9 56.29 0 7.75-4.49 11.63-10.34 11.65-16.18Z"/><ellipse class="cls-6" cx="512.49" cy="322.08" rx="39.8" ry="22.98"/><path class="cls-12" d="M540.92 323.06c-.39 3.89-3.15 7.66-8.27 10.66-11.14 6.42-29.18 6.42-40.31 0-5.14-3-7.9-6.77-8.29-10.66-.48-4.52 2.3-9.15 8.29-12.62 11.13-6.42 29.17-6.42 40.31 0 5.99 3.44 8.76 8.1 8.27 12.62Z"/><path class="cls-14" d="M540.92 323.06c-.39 3.89-3.15 7.66-8.27 10.66-11.14 6.42-29.18 6.42-40.31 0-5.14-3-7.9-6.77-8.29-10.66.39-3.87 3.15-7.65 8.29-10.64 11.13-6.43 29.17-6.43 40.31 0 5.12 2.95 7.88 6.77 8.27 10.64Z"/><path class="cls-12" d="M523.64 326.48a24 24 0 0 0 2-1.45 7.78 7.78 0 0 0 1.35-1.4 2.81 2.81 0 0 0 .61-1.4 2.2 2.2 0 0 0-.39-1.38 5.23 5.23 0 0 0-1.44-1.41 8.1 8.1 0 0 0-4.07-1.52 10.64 10.64 0 0 0-4.37.65q1.1-2-2-3.49a7.71 7.71 0 0 0-2.34-.7 8.06 8.06 0 0 0-2.5 0 14 14 0 0 0-2.46.61 23.43 23.43 0 0 0-2.52 1.1l-3.46-2 .3-.13H502l-.27-.15-.26.15h-2.19v1.24l3.81 2.19-1.86 1.09-3.85-2.19-.6.35-1.79-.2v1.23L499 320l-1.5.87-1.36.79-1.95-.12v1.23l2.56 1.47 1.72-1a2.69 2.69 0 0 1 2.45-.18l4.45 2.57.26-.13-.25.14 6.24 3.61c.44.35.41.67-.07 1l-1.75-.22v1.24l2.36 1.91 3.1-1.79.87-.49.84-.48 4 2.29 2.4-1.39V330l-1.1.61-2.92-1.61 1.91-1.09 3.9 2.25 2.39-1.38v-1.23h-2.13Zm-13.48-4.38-.72.42-.55.3-4.77-2.75 1.43-.86c.22-.13.53-.3.94-.5a11.5 11.5 0 0 1 1.09-.48 10.56 10.56 0 0 1 1.09-.34 5.37 5.37 0 0 1 1.19-.19 5.76 5.76 0 0 1 1.09.11 3.6 3.6 0 0 1 1.09.41 2.48 2.48 0 0 1 .66.55.79.79 0 0 1 .17.57 1.91 1.91 0 0 1-.15.58 1.85 1.85 0 0 1-.47.61c-.23.21-.43.4-.62.55a8.43 8.43 0 0 1-.78.55Zm11.18 1.5a2.82 2.82 0 0 1-.42.62 4.76 4.76 0 0 1-.64.63c-.24.2-.5.4-.76.58s-.5.35-.84.56l-.8.49-.75.42-.58.33-5.26-3 .72-.44 1-.59 1.1-.59c.48-.24.92-.44 1.29-.58s.81-.28 1.3-.42a6.34 6.34 0 0 1 1.37-.24 5.09 5.09 0 0 1 1.29.08 3.63 3.63 0 0 1 1.23.44 2.26 2.26 0 0 1 .65.54 1.49 1.49 0 0 1 .24.58 1.07 1.07 0 0 1-.12.66Z"/><path class="cls-6" d="M521.72 316.7a10.47 10.47 0 0 0-4.37.64c.73-1.35.07-2.51-2-3.5a8 8 0 0 0-2.34-.7 9.51 9.51 0 0 0-2.5 0 14.07 14.07 0 0 0-2.46.62 23.36 23.36 0 0 0-2.52 1.09l-3.92-2.25-2.37 1.4 3.8 2.19-1.86 1.1-3.85-2.19-2.39 1.38 3.92 2.26c-.33.21-.83.5-1.49.89l-3.28 1.89 2.55 1.47 1.72-1a2.72 2.72 0 0 1 2.45-.19l4.46 2.58a2.29 2.29 0 0 1 .27-.14l-.26.15 6.25 3.61c.45.35.41.68-.1 1l-1.73 1 2.36 1.93 3.11-1.8.86-.49.85-.48 4 2.29 2.39-1.38-3.91-2.27 1.91-1.09 3.89 2.25 2.4-1.39-4-2.28a19.09 19.09 0 0 0 2-1.45 7.46 7.46 0 0 0 1.36-1.39 2.85 2.85 0 0 0 .6-1.39 2.18 2.18 0 0 0-.38-1.38 4.91 4.91 0 0 0-1.45-1.42 7.84 7.84 0 0 0-3.97-1.56Zm-17.64 2.19 1.42-.86c.22-.13.54-.29.94-.49s.78-.36 1.1-.48a9.89 9.89 0 0 1 1.09-.35 4.75 4.75 0 0 1 1.18-.18 5.77 5.77 0 0 1 1.1.1 3.62 3.62 0 0 1 1.09.42 2.61 2.61 0 0 1 .66.53.84.84 0 0 1 .17.59 1.85 1.85 0 0 1-.15.57 2 2 0 0 1-.47.6l-.63.57a6.67 6.67 0 0 1-.77.54l-.75.47-.72.42-.55.3-4.79-2.75Zm17.13 2.34a1 1 0 0 1 .09 1.2 3.67 3.67 0 0 1-.42.61 3.82 3.82 0 0 1-.65.62q-.4.34-.75.6c-.22.16-.5.35-.84.55s-.6.39-.8.5l-.76.42-.58.33-5.26-3 .73-.43 1-.59 1.09-.59a11.12 11.12 0 0 1 2.6-1 5.25 5.25 0 0 1 1.36-.24 5.06 5.06 0 0 1 1.29.07 3.6 3.6 0 0 1 1.24.44 2.24 2.24 0 0 1 .72.54Z"/><path class="cls-5" d="M550.25 317.54v-10.23L548.6 311c-1.83-3.54-5.16-6.89-10-9.68-15.54-9-40.73-9-56.29 0a25.41 25.41 0 0 0-9.7 9.13l-2-2.58v9.76c0 5.86 3.9 11.71 11.64 16.18 15.56 9 40.75 9 56.29 0 7.75-4.47 11.64-10.32 11.66-16.18Z"/><ellipse class="cls-6" cx="510.45" cy="307.68" rx="39.8" ry="22.98"/><path class="cls-12" d="M538.88 308.66c-.39 3.87-3.15 7.66-8.29 10.65-11.12 6.42-29.17 6.42-40.29 0-5.14-3-7.91-6.78-8.3-10.65-.47-4.54 2.3-9.16 8.3-12.62 11.12-6.43 29.17-6.43 40.29 0 6 3.46 8.77 8.08 8.29 12.62Z"/><path class="cls-14" d="M538.88 308.66c-.39 3.87-3.15 7.66-8.29 10.65-11.12 6.42-29.17 6.42-40.29 0-5.14-3-7.91-6.78-8.3-10.65.39-3.87 3.16-7.65 8.3-10.64 11.12-6.43 29.17-6.43 40.29 0 5.14 2.98 7.9 6.77 8.29 10.64Z"/><path class="cls-12" d="M521.59 312.06a22.26 22.26 0 0 0 2-1.43 7.89 7.89 0 0 0 1.36-1.41 2.85 2.85 0 0 0 .6-1.39 2.26 2.26 0 0 0-.38-1.38 5 5 0 0 0-1.45-1.41 7.9 7.9 0 0 0-4-1.52 10.43 10.43 0 0 0-4.32.65c.75-1.35.1-2.52-2-3.49a7.44 7.44 0 0 0-2.34-.7 8.66 8.66 0 0 0-2.49 0 14.74 14.74 0 0 0-2.46.61 22.68 22.68 0 0 0-2.53 1.09l-3.46-2 .3-.11H500l-.27-.15-.26.15h-2.13v1.2l3.81 2.19-1.87 1.1-3.84-2.19-.62.36L493 302v1.24l3.93 2.26-1.5.88-1.37.78-1.94-.12v1.23l2.54 1.47 1.73-1a2.67 2.67 0 0 1 2.44-.2l4.46 2.58.28-.13-.26.14 6.25 3.61c.44.34.4.66-.08.95l-1.75-.2v1.22l2.37 1.93 3.1-1.8.87-.49.84-.48 4 2.29 2.39-1.38v-1.24l-1.09.62-2.84-1.65c.43-.24 1.09-.6 1.9-1.09l3.9 2.25 2.4-1.38v-1.23h-2.14Zm-13.47-4.37c-.18.11-.42.25-.73.41l-.54.31-4.85-2.71.6-.35.82-.51c.22-.13.53-.29.94-.49s.77-.36 1.09-.48a10.06 10.06 0 0 1 1.1-.35 5.17 5.17 0 0 1 1.18-.17 5 5 0 0 1 1.09.09 3.52 3.52 0 0 1 1.09.42 2.3 2.3 0 0 1 .66.54.87.87 0 0 1 .18.59 2.38 2.38 0 0 1-.16.58 2.27 2.27 0 0 1-.47.6c-.23.22-.44.4-.63.56a8.19 8.19 0 0 1-.77.54Zm11.17 1.51a3.1 3.1 0 0 1-.41.61 4.77 4.77 0 0 1-.65.62 7.93 7.93 0 0 1-.75.59c-.23.17-.5.35-.84.56l-.8.49-.76.43-.59.33-5.25-3 .72-.44 1-.59 1.09-.59a13.51 13.51 0 0 1 2.59-1 6.45 6.45 0 0 1 1.37-.24 6.17 6.17 0 0 1 1.29.08 3.63 3.63 0 0 1 1.23.44 2 2 0 0 1 .64.54 1.26 1.26 0 0 1 .25.58 1 1 0 0 1-.12.67Z"/><path class="cls-6" d="M519.72 302.29a10.59 10.59 0 0 0-4.32.64q1.1-2-2-3.49a8 8 0 0 0-2.34-.7 8.66 8.66 0 0 0-2.49 0 14.86 14.86 0 0 0-2.47.61 23.43 23.43 0 0 0-2.52 1.1l-3.92-2.27-2.39 1.39 3.8 2.19-1.87 1.09-3.83-2.18L493 302l3.93 2.27-1.5.87-3.28 1.91 2.55 1.46 1.72-1a2.7 2.7 0 0 1 2.44-.19l4.46 2.57.28-.13-.25.14 6.24 3.61c.45.35.42.68-.11 1l-1.72 1 2.37 1.91 3.1-1.79.87-.48.84-.48 4 2.28 2.39-1.38-3.94-2.26 1.9-1.09 3.9 2.25 2.4-1.38-4-2.28a19.09 19.09 0 0 0 2-1.45A8.19 8.19 0 0 0 525 308a2.84 2.84 0 0 0 .6-1.4 2.3 2.3 0 0 0-.38-1.37 5.26 5.26 0 0 0-1.45-1.41 8.06 8.06 0 0 0-4.05-1.53Zm-17.64 2.18 1.42-.85c.22-.13.54-.3.94-.5a11.18 11.18 0 0 1 1.09-.48 8.72 8.72 0 0 1 1.1-.34 5.19 5.19 0 0 1 1.18-.19 5 5 0 0 1 1.09.11 3.54 3.54 0 0 1 1.1.4 2.47 2.47 0 0 1 .65.55.76.76 0 0 1 .18.58 1.92 1.92 0 0 1-.16.58 1.72 1.72 0 0 1-.47.6 7.29 7.29 0 0 1-.63.56 7.14 7.14 0 0 1-.77.55l-.74.47-.72.41-.55.31-4.79-2.76Zm17.11 2.34a1 1 0 0 1 .1 1.21 5 5 0 0 1-.41.61 5.43 5.43 0 0 1-.65.62 7.93 7.93 0 0 1-.75.59l-.85.56-.79.49-.76.43-.59.33-5.25-3 .72-.44 1-.58L512 307a12.4 12.4 0 0 1 1.29-.58c.37-.14.8-.29 1.3-.43a7.15 7.15 0 0 1 1.37-.24 5.57 5.57 0 0 1 1.29.09 3.63 3.63 0 0 1 1.23.44 1.76 1.76 0 0 1 .71.53Z"/><path class="cls-5" d="M554.12 303.42V293.1l-1.65 3.68c-1.82-3.54-5.16-6.89-10-9.69-15.54-9-40.74-9-56.29 0a25.38 25.38 0 0 0-9.7 9.15l-2-2.58v9.75c0 5.86 3.9 11.71 11.64 16.19 15.55 9 40.75 9 56.3 0 7.74-4.48 11.63-10.33 11.65-16.19Z"/><ellipse cx="514.32" cy="293.56" rx="39.8" ry="22.98" style="fill:#93e8cc"/><path class="cls-7" d="M542.75 294.54c-.39 3.87-3.15 7.66-8.29 10.64-11.12 6.43-29.17 6.43-40.29 0-5.14-2.95-7.91-6.77-8.3-10.64-.47-4.54 2.3-9.16 8.3-12.62 11.12-6.43 29.17-6.43 40.29 0 6.01 3.46 8.77 8.08 8.29 12.62Z"/><path class="cls-8" d="M542.75 294.54c-.39 3.87-3.15 7.66-8.29 10.64-11.12 6.43-29.17 6.43-40.29 0-5.14-2.95-7.91-6.77-8.3-10.64.39-3.87 3.16-7.65 8.3-10.65 11.12-6.42 29.17-6.42 40.29 0 5.14 2.96 7.9 6.78 8.29 10.65Z"/><path class="cls-1" d="M77.11 448.06 5.49 422.59c-8.13-2.89-7.11-7.92 2.27-11.26l36.37-12.93c9.37-3.33 23.57-3.7 31.68-.8l71.68 25.46c8.13 2.89 7.1 7.93-2.27 11.26l-36.41 12.93c-9.39 3.31-23.57 3.7-31.7.81Z"/><path d="M180.74 408.77v-71.18L71.93 325.34V397c-.09 2.18 1.18 4.26 3.87 5.82l51 29.43c5.78 3.35 15.88 2.92 22.55-.92l25.89-14.94c3.76-2.19 5.63-5 5.57-7.59Z" style="fill:#fff"/><path d="M180.72 345.36v-7.79h-8.38l-46.52-26.83c-5.77-3.34-15.87-2.92-22.55.93l-25.85 14.94c-.46.27-.9.55-1.34.87l-4.15-2.19v8.49c0 2.19 1.2 4.27 3.88 5.81l51 29.44c5.78 3.28 15.88 2.92 22.56-.94l25.88-14.84c3.87-2.19 5.73-5.13 5.47-7.79Z" style="fill:#edf0f9"/><path d="m126.78 360.59-51-29.43c-5.78-3.35-5-9.17 1.62-13l25.88-14.94c6.68-3.85 16.78-4.27 22.55-.94l51 29.44c5.78 3.28 5 9.17-1.62 13l-25.89 15c-6.66 3.82-16.76 4.2-22.54.87Z" style="fill:#e2e5f2"/><g id="_Группа_" data-name="Группа"><path id="_Контур_" data-name="Контур" class="cls-19" d="M153 333.87a2.54 2.54 0 0 1-1.29 2.19l-23.5 13.59a2.48 2.48 0 0 1-2.5 0l-32.81-19a2.53 2.53 0 0 1-1.26-2.19v-.13Z"/><path id="_Контур" data-name="Контур" class="cls-19" d="m151.69 336.1-23.5 13.55a2.49 2.49 0 0 1-1.28.32v-16.1h26a2.51 2.51 0 0 1-1.22 2.23Z"/><g id="_Группа" data-name="Группа"><path id="_Контур-2" data-name="Контур" class="cls-20" d="M127.88 348.34a1.76 1.76 0 0 1-1.8 0l-34.16-19.71a.49.49 0 0 1-.32-.6.47.47 0 0 1 .32-.32l25.15-14.54 35.93 20.7Z"/></g><g id="_Группа-2" data-name="Группа"><path id="_Контур-3" data-name="Контур" d="m106 333.88.19.1 11 6.34 6-3.48.16-.1-11.13-6.44-6.22 3.58Z" style="fill:#bfbfbf"/><path id="_Контур-4" data-name="Контур" class="cls-19" d="m106.14 334 11 6.34 6-3.48-11-6.33Z"/></g><path class="cls-22" d="m143.46 335.13 1.54 1a.57.57 0 0 0 .51 0l1.49-.88c.17-.08.18-.2 0-.28l-1.57-.92a.62.62 0 0 0-.5 0l-1.5.88c-.11.07-.11.12.03.2ZM141.22 333.87l1.59.92a.62.62 0 0 0 .5 0l1.51-.88c.15-.08.16-.22 0-.28l-1.59-.92a.55.55 0 0 0-.5 0l-1.5.87c-.1.06-.1.18-.01.29ZM138.94 332.55l1.59.9a.52.52 0 0 0 .51 0l1.5-.86c.14-.09.17-.22 0-.28l-1.54-.93a.5.5 0 0 0-.5 0l-1.56.87a.23.23 0 0 0 0 .3ZM136.76 331.25l1.57.91a.53.53 0 0 0 .52 0l1.51-.86c.14-.09.16-.22 0-.3l-1.59-.9a.5.5 0 0 0-.5 0l-1.5.86c-.13.09-.14.22-.01.29ZM134.5 330l1.59.9a.55.55 0 0 0 .5 0l1.51-.86c.14-.09.17-.22 0-.3l-1.58-.9a.55.55 0 0 0-.5 0l-1.52.87a.17.17 0 0 0-.08.14.18.18 0 0 0 .08.15ZM132.27 328.67l1.58.91a.55.55 0 0 0 .5 0l1.51-.86c.15-.09.18-.23 0-.31l-1.57-.91a.65.65 0 0 0-.51 0l-1.51.88a.17.17 0 0 0-.09.15.16.16 0 0 0 .09.14ZM130 327.38l1.62.92a.53.53 0 0 0 .49 0l1.52-.87c.14-.08.17-.22 0-.3l-1.58-.91a.62.62 0 0 0-.5 0l-1.52.87c-.11.1-.13.22-.03.29ZM127.79 326.08l1.59.91a.55.55 0 0 0 .5 0l1.51-.88c.14-.08.16-.21 0-.29l-1.58-.91a.62.62 0 0 0-.5 0l-1.52.87c-.11.13-.13.22 0 .3ZM125.56 324.81l1.57.92a.57.57 0 0 0 .51 0l1.52-.87c.14-.09.16-.22 0-.3l-1.59-.91a.62.62 0 0 0-.5 0l-1.51.87a.16.16 0 0 0 0 .29ZM123.32 323.49l1.58.92a.57.57 0 0 0 .51 0l1.5-.88c.15-.08.16-.2 0-.28l-1.58-.91a.48.48 0 0 0-.49 0l-1.52.87c-.11.08-.13.22 0 .28ZM121.09 322.2l1.57.92a.62.62 0 0 0 .5 0l1.51-.88c.16-.08.17-.2 0-.28l-1.57-.96a.57.57 0 0 0-.51 0l-1.5.88c-.09.12-.15.25 0 .32ZM118.84 320.91l1.59.92a.53.53 0 0 0 .49 0l1.51-.88c.15-.08.16-.2 0-.28l-1.59-.92a.57.57 0 0 0-.51 0l-1.5.88a.16.16 0 0 0 .01.28ZM116.6 319.62l1.59.92a.62.62 0 0 0 .5 0l1.5-.88c.15-.08.16-.2 0-.28l-1.58-.92a.57.57 0 0 0-.51 0l-1.51.88a.16.16 0 0 0-.08.13.17.17 0 0 0 .09.15ZM113.29 317.71l2.69 1.54a.62.62 0 0 0 .5 0l1.51-.88c.15-.08.16-.22 0-.28l-2.67-1.54a.53.53 0 0 0-.49 0l-1.52.87c-.13.09-.15.21-.02.29ZM138 334.46l1.58.92a.57.57 0 0 0 .51 0l1.51-.89c.14-.07.16-.21 0-.28l-1.53-.92a.55.55 0 0 0-.5 0l-1.5.87c-.22.1-.22.23-.07.3ZM135.73 333.17l1.59.91a.55.55 0 0 0 .5 0l1.51-.87c.14-.09.16-.21 0-.28l-1.59-.92a.53.53 0 0 0-.49 0l-1.52.86c-.07.13-.13.22 0 .3ZM133.48 331.88l1.58.91a.57.57 0 0 0 .51 0l1.49-.87c.17-.08.18-.22 0-.29l-1.58-.91a.52.52 0 0 0-.51 0l-1.49.86a.16.16 0 0 0 0 .3ZM131.29 330.59l1.58.91a.62.62 0 0 0 .5 0l1.52-.88c.14-.08.16-.21 0-.29l-1.56-.91a.55.55 0 0 0-.5 0l-1.54.86c-.15.09-.18.25 0 .31ZM129 329.3l1.59.9a.52.52 0 0 0 .51 0l1.5-.86c.14-.09.17-.22 0-.29l-1.57-1a.57.57 0 0 0-.51 0L129 329c-.1.09-.11.19 0 .3ZM126.78 328l1.58.91a.55.55 0 0 0 .5 0l1.52-.87c.14-.09.15-.23 0-.29l-1.58-.91a.52.52 0 0 0-.51 0l-1.51.86c-.11.1-.13.23 0 .3ZM124.53 326.72l1.59.9a.57.57 0 0 0 .51 0l1.5-.86c.15-.09.16-.23 0-.31l-1.59-.9a.53.53 0 0 0-.49 0l-1.51.87a.18.18 0 0 0-.1.15.19.19 0 0 0 .09.15ZM122.3 325.4l1.57.92a.52.52 0 0 0 .51 0l1.51-.86c.15-.09.17-.22 0-.3l-1.58-.9a.5.5 0 0 0-.5 0l-1.51.86c-.12.09-.14.22 0 .28ZM120.06 324.11l1.58.92a.55.55 0 0 0 .5 0l1.5-.87c.16-.09.17-.21 0-.29l-1.58-.91a.59.59 0 0 0-.52 0l-1.49.87c-.11.09-.12.17.01.28ZM117.8 322.82l1.59.92a.55.55 0 0 0 .5 0l1.51-.87c.14-.09.17-.22 0-.29l-1.54-1a.55.55 0 0 0-.5 0l-1.52.89c-.14.16-.16.27-.04.35ZM115.57 321.53l1.58.92a.55.55 0 0 0 .5 0l1.52-.88c.14-.08.15-.21 0-.29l-1.58-.92a.65.65 0 0 0-.51 0l-1.51.88c-.11.09-.13.22 0 .29ZM113.32 320.23l1.59.92a.57.57 0 0 0 .51 0l1.5-.88c.15-.08.16-.2 0-.28l-1.59-.92a.6.6 0 0 0-.49 0l-1.51.88c-.12.05-.13.22-.01.28ZM140.21 335.75l2.67 1.54a.62.62 0 0 0 .5 0l1.5-.87c.16-.09.17-.22 0-.3l-2.65-1.53a.74.74 0 0 0-.51 0l-1.52.89a.17.17 0 0 0-.07.13.16.16 0 0 0 .08.14ZM113.15 317.77l1.57.92c.13.07.13.19 0 .26l-1.6.93a.55.55 0 0 1-.47 0l-.12-.09a.54.54 0 0 0-.43 0l-1.68 1a.55.55 0 0 1-.47 0l-1-.58a.15.15 0 0 1-.09-.14.19.19 0 0 1 0-.07.09.09 0 0 1 .07-.06l1.57-.91.32-.19.48-.28 1.35-.78a.53.53 0 0 1 .49 0ZM134.78 340.12l1.57.92a.57.57 0 0 0 .51 0l1.51-.87c.15-.09.17-.22 0-.3l-1.61-.91a.74.74 0 0 0-.51 0l-1.5.89a.16.16 0 0 0-.08.13.16.16 0 0 0 .11.14ZM132.55 338.85l1.58.91a.53.53 0 0 0 .49 0l1.51-.87c.16-.09.17-.22 0-.28l-1.56-.92a.57.57 0 0 0-.51 0l-1.5.87c-.18.09-.18.21-.01.29ZM130.31 337.55l1.58.91a.5.5 0 0 0 .5 0l1.51-.86c.16-.09.18-.21 0-.29l-1.52-.91a.55.55 0 0 0-.5 0l-1.52.87c-.16.09-.16.22-.05.28ZM111.31 326.58l1.57.91a.57.57 0 0 0 .51 0l1.51-.88c.15-.08.16-.21 0-.29l-1.59-.92a.65.65 0 0 0-.51 0l-1.5.88c-.1.1-.12.23 0 .3ZM109.07 325.29l1.58.92a.57.57 0 0 0 .51 0l1.5-.87c.15-.09.17-.22 0-.3l-1.57-.92a.72.72 0 0 0-.5 0l-1.52.89a.17.17 0 0 0-.09.14.16.16 0 0 0 .09.14ZM106.85 324l1.57.91a.55.55 0 0 0 .5 0l1.51-.87c.16-.09.17-.22 0-.29l-1.58-.91a.59.59 0 0 0-.52 0l-1.49.87c-.1.13-.12.21 0 .29ZM104.6 322.74l1.59.91a.55.55 0 0 0 .5 0l1.51-.87c.14-.09.17-.21 0-.29l-1.58-1a.62.62 0 0 0-.5 0l-1.52.88a.2.2 0 0 0 0 .37ZM127.51 335.94l2.18 1.27a.57.57 0 0 0 .51 0l1.5-.88c.16-.08.17-.21 0-.28l-2.18-1.25a.57.57 0 0 0-.51 0l-1.5.88a.13.13 0 0 0-.09.13.14.14 0 0 0 .09.13ZM113.54 327.87l2.19 1.24a.5.5 0 0 0 .5 0l1.51-.86c.14-.09.15-.22 0-.29l-2.19-1.24a.5.5 0 0 0-.5 0l-1.51.86c-.12.09-.13.21 0 .29ZM116.34 329.49l10.57 6.07a.57.57 0 0 0 .51 0l1.5-.87c.15-.09.16-.22 0-.29l-10.48-6.1a.6.6 0 0 0-.49 0l-1.51.89c-.21.1-.22.23-.1.3ZM135.19 335.36l1.59.92a.55.55 0 0 0 .5 0l1.51-.87c.14-.09.15-.22 0-.29l-1.57-.93a.52.52 0 0 0-.51 0l-1.52.86c-.11.11-.13.24 0 .31ZM133 334.07l1.58.91a.55.55 0 0 0 .5 0l1.52-.88c.14-.08.16-.21 0-.29l-1.6-.91a.52.52 0 0 0-.51 0l-1.51.86c-.13.11-.15.24.02.31ZM130.72 332.75l1.59.92a.53.53 0 0 0 .49 0l1.52-.92c.14-.07.16-.2 0-.28l-1.57-.82a.48.48 0 0 0-.49 0l-1.52.82c-.13.11-.15.28-.02.28ZM128.49 331.49l1.57.91a.57.57 0 0 0 .51 0l1.51-.88c.15-.08.17-.21 0-.29l-1.55-1a.62.62 0 0 0-.5 0l-1.51.88c-.15.18-.16.27-.03.38ZM126.25 330.21l1.57.91a.67.67 0 0 0 .52 0l1.51-.88c.15-.08.16-.21 0-.29l-1.55-.95a.62.62 0 0 0-.5 0l-1.5.88c-.16.12-.22.25-.05.33ZM124 328.92l1.58.91a.65.65 0 0 0 .51 0l1.49-.88c.16-.08.17-.21 0-.29l-1.52-.94a.75.75 0 0 0-.51 0l-1.51.88c-.19.11-.19.24-.04.32ZM121.79 327.62l1.57.92a.62.62 0 0 0 .5 0l1.51-.87c.16-.09.17-.22 0-.3l-1.52-.94a.74.74 0 0 0-.51 0l-1.5.89c-.21.1-.21.23-.05.3ZM119.54 326.33l1.59.91a.5.5 0 0 0 .5 0l1.51-.86c.14-.09.15-.22 0-.3l-1.51-.94a.72.72 0 0 0-.5 0l-1.52.88c-.21.06-.21.24-.07.31ZM117.31 325l1.58.91a.55.55 0 0 0 .5 0l1.51-.86c.15-.09.17-.22 0-.31l-1.5-.93a.62.62 0 0 0-.5 0l-1.51.88c-.22.13-.22.31-.08.31ZM115.07 323.72l1.59.91a.6.6 0 0 0 .49 0l1.52-.87c.14-.08.16-.22 0-.29l-1.5-.84a.53.53 0 0 0-.49 0l-1.52.87c-.16.03-.16.22-.09.22ZM112.83 322.46l1.58.91a.59.59 0 0 0 .52 0l1.5-.86c.14-.09.16-.23 0-.3l-1.55-.91a.62.62 0 0 0-.5 0l-1.51.88a.16.16 0 0 0-.11.15.17.17 0 0 0 .07.13Z"/><path class="cls-22" d="m110.6 321.17 1.57.91a.53.53 0 0 0 .52 0l1.51-.86c.15-.09.16-.23 0-.3l-1.59-.91a.62.62 0 0 0-.5 0l-1.5.88a.15.15 0 0 0-.09.14.16.16 0 0 0 .08.14ZM137.44 336.66l3.28 1.89a.57.57 0 0 0 .51 0l1.5-.87c.15-.09.17-.22 0-.29l-3.28-1.91a.53.53 0 0 0-.52 0l-1.49.86c-.12.11-.14.24 0 .32ZM134.14 337.21l1.58.91a.55.55 0 0 0 .5 0l1.5-.87c.16-.09.17-.22 0-.3l-1.53-.85a.59.59 0 0 0-.52 0l-1.49.86c-.18.09-.18.25-.04.25ZM131.9 336l1.58.87a.6.6 0 0 0 .49 0l1.52-.87c.14-.09.15-.22 0-.3l-1.59-.9a.5.5 0 0 0-.5 0l-1.51.86c-.1.09-.12.23.01.34ZM129.66 334.66l1.59.92a.72.72 0 0 0 .5 0l1.51-.89c.14-.08.17-.21 0-.28l-1.58-.85a.55.55 0 0 0-.5 0l-1.52.87c-.11.04-.13.23 0 .23ZM127.43 333.39l1.57.92a.74.74 0 0 0 .51 0l1.52-.88c.14-.08.16-.22 0-.29l-1.59-.92a.62.62 0 0 0-.5 0l-1.51.88a.18.18 0 0 0-.08.15.16.16 0 0 0 .08.14ZM125.19 332.1l1.58.92a.67.67 0 0 0 .52 0l1.49-.88c.15-.09.17-.22 0-.29l-1.59-.94a.6.6 0 0 0-.49 0l-1.51.88c-.11.1-.12.21 0 .31ZM123 330.81l1.58.91a.55.55 0 0 0 .5 0l1.5-.87c.17-.09.18-.22 0-.28l-1.57-.94a.57.57 0 0 0-.51 0l-1.49.88c-.17.09-.19.22-.01.3ZM120.72 329.52l1.59.92a.6.6 0 0 0 .49 0l1.51-.88c.15-.09.17-.22 0-.28l-1.57-1a.67.67 0 0 0-.52 0l-1.5.89c-.1.14-.13.25 0 .35ZM118.48 328.23l1.59.9a.5.5 0 0 0 .5 0l1.51-.86c.14-.09.16-.22 0-.28l-1.56-1a.57.57 0 0 0-.51 0l-1.51.88c-.13.13-.15.28-.02.36ZM116.25 326.93l1.58.91a.5.5 0 0 0 .5 0l1.52-.86c.14-.09.16-.22 0-.29l-1.56-.94a.57.57 0 0 0-.51 0l-1.51.87c-.13.12-.15.24-.02.31ZM114 325.65l1.59.9a.5.5 0 0 0 .5 0l1.51-.86c.14-.09.16-.22 0-.3l-1.54-.93a.57.57 0 0 0-.51 0l-1.51.87c-.14.12-.15.24-.04.32ZM111.78 324.35l1.57.91a.53.53 0 0 0 .52 0l1.5-.86c.16-.09.17-.21 0-.3l-1.58-.93a.55.55 0 0 0-.5 0l-1.5.87c-.12.11-.19.24-.01.31ZM106.78 321.47l4.38 2.5a.48.48 0 0 0 .49 0l1.51-.86c.15-.09.16-.22 0-.3l-4.38-2.51a.62.62 0 0 0-.5 0l-1.51.88a.15.15 0 0 0-.09.14.15.15 0 0 0 .1.15ZM136.36 338.55l2.19 1.25a.62.62 0 0 0 .5 0l1.51-.88c.15-.09.17-.21 0-.28l-2.18-1.25a.5.5 0 0 0-.5 0l-1.51.86a.19.19 0 0 0-.09.15.18.18 0 0 0 .08.15Z"/></g><g id="_Группа-3" data-name="Группа"><g id="_Группа-4" data-name="Группа"><path id="_Контур-5" data-name="Контур" class="cls-19" d="m153 333.87-35.91-20.7v-28.23l.29-.62.28-.16a2.55 2.55 0 0 1 2.48 0l32.81 18.93a2.47 2.47 0 0 1 1.24 2.19v26.48c-.19 1.35-.45 1.67-1.19 2.11Z"/><path id="_Контур-6" data-name="Контур" class="cls-19" d="m149.68 306.54-32.61-20.65v-.95l.29-.62.28-.16a2.55 2.55 0 0 1 2.48 0l32.81 18.94a2.44 2.44 0 0 1 .94 1Z"/><path id="_Контур-7" data-name="Контур" d="m117.92 284.35 34.51 19.89a1.23 1.23 0 0 1 .6 1.1V334l-36-20.79v-28.48a.58.58 0 0 1 .54-.56.61.61 0 0 1 .35.18Z" style="fill:#dceeff"/><path id="_Контур-8" data-name="Контур" class="cls-20" d="m117.92 284.35 34.51 19.89a1.23 1.23 0 0 1 .6 1.1V334l-36-20.79v-28.48a.58.58 0 0 1 .54-.56.61.61 0 0 1 .35.18Z"/><path id="_Контур-9" data-name="Контур" d="M153 333.88v-1l-35.89-20.72v1Z" style="fill:#dbdbdb"/></g><path id="_Контур-10" data-name="Контур" d="M118.46 286v25.41l33.36 19.2V305.3Z" style="fill:#1e212d"/></g></g><path class="cls-7" d="M331.57 67.56c-5-3.15-9.58-9.79-11-16-1.09-4.78-.5-8.41 1.26-11.17a12.8 12.8 0 0 1 5.07-4.2 39.64 39.64 0 0 0 5-2.81c.25-.17.46-.42.86.36 2 3.79 4.31 7.39 6.4 11.12a48.13 48.13 0 0 1 4.67 10.61c2.25 8.17.35 14.46-5.83 14.44-2 0-3.82-.66-6.45-2.38Z"/><path class="cls-9" d="M330.7 67.64c-4.92-3.12-9.48-9.69-10.88-15.81-1.08-4.73-.5-8.33 1.25-11.06a12.64 12.64 0 0 1 5-4.16 38.72 38.72 0 0 0 5-2.78c.25-.17.46-.42.86.36 1.94 3.75 4.26 7.31 6.34 11a48.09 48.09 0 0 1 4.61 10.51c2.24 8.08.35 14.31-5.76 14.29-2 0-3.79-.65-6.39-2.35Z"/><path class="cls-7" d="M336.5 58.11a6.79 6.79 0 0 0-1.29-2.3c1 .34 1.57-.1 1.74-1.26a3.23 3.23 0 0 0-.06-1.31 4.83 4.83 0 0 0-.54-1.35 10.08 10.08 0 0 0-.89-1.31 15.92 15.92 0 0 0-1.18-1.3l.58-2.25-1.35-1.21-.61.07.38.81-.34 1.3-1.07-1 .57-2.21-1.36-1.21-.61.07.44.61-.41 1.58-.86-.75-1.86-1.68-.61.07.42.69-.19.71 1 .87a1.59 1.59 0 0 1 .63 1.31l-.66 2.56.14.14-.14-.13-.93 3.6q-.2.39-.63 0l-1-.87-.61.06.31.57-.38.76 1.76 1.57.48.44.49.43-.59 2.28.79.71-.06.56.61-.06.58-2.25 1.07 1-.58 2.24.77.69v.58l.61-.06.59-2.28c.42.35.86.69 1.31 1a7.69 7.69 0 0 0 1.16.65 2.6 2.6 0 0 0 1 .23 1.2 1.2 0 0 0 .78-.29 2.06 2.06 0 0 0 .57-.86 3.38 3.38 0 0 0 .09-2.27Zm-4.2-8.68q.19.16.51.48c.2.21.38.39.52.55s.31.38.45.58a2.84 2.84 0 0 1 .36.63 2.72 2.72 0 0 1 .17.62 1.61 1.61 0 0 1 0 .62.89.89 0 0 1-.2.4.43.43 0 0 1-.32.13 1.74 1.74 0 0 1-.39 0 1.56 1.56 0 0 1-.47-.22l-.48-.3a4.66 4.66 0 0 1-.49-.39l-.45-.37-.41-.37-.3-.27.71-2.76.35.3.47.42Zm1.3 8.67a.63.63 0 0 1-.31.17.84.84 0 0 1-.41-.05 2.07 2.07 0 0 1-.47-.18 4 4 0 0 1-.52-.31c-.17-.11-.34-.24-.5-.36l-.52-.43-.49-.41-.43-.39-.32-.29.78-3 .43.36.57.5.6.56a6.09 6.09 0 0 1 .63.68c.15.21.34.42.53.68a4.3 4.3 0 0 1 .41.72 3 3 0 0 1 .22.7 1.6 1.6 0 0 1 0 .69.79.79 0 0 1-.18.38Z"/><path class="cls-26" d="M335.88 58.15a6.66 6.66 0 0 0-1.3-2.3c1 .34 1.57-.08 1.75-1.26a3.64 3.64 0 0 0-.06-1.31 4.86 4.86 0 0 0-.55-1.35 9.25 9.25 0 0 0-.86-1.28 15.92 15.92 0 0 0-1.18-1.3l.59-2.25-1.36-1.21-.56 2.19-1.08-.94.57-2.21-1.36-1.21-.58 2.28-.85-.76-1.87-1.67-.38 1.43 1 .87a1.61 1.61 0 0 1 .62 1.31l-.66 2.56.14.14-.14-.13-.93 3.59c-.12.27-.34.27-.63 0l-1-.87-.7 1.39 1.76 1.57 1 .87-.59 2.28 1.33 1.23.59-2.25c.24.23.6.55 1.07 1l-.58 2.25 1.34 1.19.58-2.3a14.4 14.4 0 0 0 1.32 1 6.72 6.72 0 0 0 1.14.65 2.52 2.52 0 0 0 1 .24 1.27 1.27 0 0 0 .77-.29 2 2 0 0 0 .58-.86 3.47 3.47 0 0 0 .07-2.3Zm-5-9.39.35.31.48.42q.19.16.51.48c.22.21.38.39.52.55s.31.39.45.58a4.43 4.43 0 0 1 .36.63 2.29 2.29 0 0 1 .16.61 1.48 1.48 0 0 1 0 .63.86.86 0 0 1-.2.39.44.44 0 0 1-.32.15 2.6 2.6 0 0 1-.39 0 2 2 0 0 1-.47-.22l-.48-.31c-.14-.09-.3-.22-.5-.38l-.44-.38-.41-.36-.3-.28.72-2.76Zm2.12 9.4a.55.55 0 0 1-.31.16.77.77 0 0 1-.42 0 4.37 4.37 0 0 1-.46-.18l-.52-.31c-.17-.12-.34-.24-.5-.37l-.52-.42-.49-.41-.42-.38-.33-.3.78-3 .42.36.57.5q.23.2.6.57a6.17 6.17 0 0 1 .6.62 8.32 8.32 0 0 1 .53.68 4.65 4.65 0 0 1 .41.71 2.7 2.7 0 0 1 .22.7 1.65 1.65 0 0 1 0 .7.85.85 0 0 1-.16.37Z"/><path class="cls-7" d="M525.43 303.09a35.46 35.46 0 0 1-19.06-2.56c-4.15-1.95-6.28-4.19-7-6.59a7.43 7.43 0 0 1 .66-4.95 26 26 0 0 0 1.6-4.18c.05-.23 0-.47.86-.28 4.07 1 8.27 1.6 12.39 2.45a58.32 58.32 0 0 1 10.79 3.12c7.35 3.11 10.42 7.47 6 10.78-1.43 1.06-3.19 1.71-6.28 2.21Z"/><path class="cls-9" d="M524.87 303.6a35.09 35.09 0 0 1-18.87-2.54c-4.1-1.92-6.22-4.14-6.89-6.52a7.41 7.41 0 0 1 .66-4.9 26.45 26.45 0 0 0 1.58-4.14c.05-.23 0-.47.86-.27 4 .94 8.18 1.58 12.26 2.42a58.13 58.13 0 0 1 10.68 3.09c7.28 3.08 10.32 7.39 5.94 10.67-1.42 1-3.16 1.69-6.21 2.19Z"/><path class="cls-7" d="M522.33 293.09a8.63 8.63 0 0 0-2.63 0c.77-.54.67-1.09-.26-1.62a3.78 3.78 0 0 0-1.17-.43 5.65 5.65 0 0 0-1.44-.12 12.23 12.23 0 0 0-1.58.11c-.56.09-1.13.19-1.7.32l-1.68-1.19-1.71.46-.24.44h.9l1 .7-1.34.38-1.67-1.14-1.72.46-.24.44.75-.08 1.18.85-1.07.3-2.36.63-.25.43h.81l.53.37 1.23-.33a2 2 0 0 1 1.45.05l1.88 1.38h.19l-.18.05 2.69 1.91c.16.18.06.32-.31.42l-1.23.33-.24.43h.65l.48.53 2.22-.61.62-.17.61-.16 1.7 1.21 1-.28.45.25.25-.43-1.68-1.2 1.36-.36 1.68 1.2 1-.27.49.23.24-.43-1.71-1.21c.52-.15 1-.32 1.52-.51a7.23 7.23 0 0 0 1.12-.54 2.19 2.19 0 0 0 .69-.57.72.72 0 0 0 .12-.62 1.45 1.45 0 0 0-.47-.69 3.68 3.68 0 0 0-1.94-.88Zm-9.61-.32.66-.17.74-.15.72-.09a4.36 4.36 0 0 1 .72 0 3.19 3.19 0 0 1 .63.11 1.51 1.51 0 0 1 .53.24.71.71 0 0 1 .25.27.28.28 0 0 1-.05.27 1.29 1.29 0 0 1-.23.24 2.33 2.33 0 0 1-.41.24l-.5.2a5.66 5.66 0 0 1-.58.2l-.54.16-.52.14-.38.1-2.07-1.46.44-.13.59-.16Zm8.2 2.25a.42.42 0 0 1 0 .27.87.87 0 0 1-.25.26 2 2 0 0 1-.38.24 4.9 4.9 0 0 1-.52.24l-.56.2-.63.2-.59.18-.55.14-.41.11-2.26-1.61.52-.15.71-.2c.19-.06.45-.12.79-.2a8.77 8.77 0 0 1 .89-.18c.26 0 .54-.08.86-.11a5.63 5.63 0 0 1 .82 0 4.16 4.16 0 0 1 .72.1 1.88 1.88 0 0 1 .59.26.69.69 0 0 1 .25.26Z"/><path class="cls-26" d="M522.07 293.52a8.7 8.7 0 0 0-2.64 0c.77-.54.69-1.08-.25-1.62a4.12 4.12 0 0 0-1.18-.43 5.57 5.57 0 0 0-1.43-.12 11.51 11.51 0 0 0-1.54.11c-.57.08-1.14.19-1.71.32l-1.68-1.2-1.71.47 1.64 1.16-1.35.38-1.65-1.17-1.71.47 1.69 1.2-1.08.3-2.36.64 1.09.78 1.23-.34a2 2 0 0 1 1.44.06l1.92 1.36h.18l-.17.05 2.68 1.91c.18.17.07.32-.3.42l-1.23.33.88 1 2.23-.61 1.22-.33 1.71 1.21 1.71-.47-1.7-1.22 1.37-.37 1.68 1.19 1.71-.46-1.71-1.22c.52-.15 1-.32 1.52-.51a8.22 8.22 0 0 0 1.12-.53 2.22 2.22 0 0 0 .69-.58.75.75 0 0 0 .12-.62 1.41 1.41 0 0 0-.48-.69 3.7 3.7 0 0 0-2-.87Zm-10.63 0 .43-.12.61-.18.66-.17.73-.14.73-.09a5.83 5.83 0 0 1 .72 0 4 4 0 0 1 .62.11 2 2 0 0 1 .53.24.74.74 0 0 1 .25.28.27.27 0 0 1 0 .26 1.88 1.88 0 0 1-.24.25 1.81 1.81 0 0 1-.41.23l-.5.21-.58.2-.54.15-.52.15-.38.1-2.07-1.47Zm9.22 2a.32.32 0 0 1 0 .27.72.72 0 0 1-.24.26 2.55 2.55 0 0 1-.39.24 4.12 4.12 0 0 1-.52.24l-.56.2c-.16.06-.38.12-.62.19l-.6.19-.53.14-.42.11-2.26-1.61.52-.15.71-.2.79-.19a8.77 8.77 0 0 1 .89-.18l.86-.11a7.54 7.54 0 0 1 .82 0 4.16 4.16 0 0 1 .72.11 1.82 1.82 0 0 1 .6.26.55.55 0 0 1 .23.25Z"/><path class="cls-7" d="M176.2 131.63a37.42 37.42 0 0 1-19.2-2.41c-4.16-1.86-6.28-4-6.92-6.33a6.93 6.93 0 0 1 .77-4.77 24.52 24.52 0 0 0 1.69-4c.06-.22 0-.46.88-.27 4.1.91 8.34 1.52 12.48 2.33a60.21 60.21 0 0 1 10.86 3c7.38 3 10.4 7.16 5.86 10.36-1.47 1-3.25 1.66-6.39 2.15Z"/><path class="cls-9" d="M175.62 132.12a36.81 36.81 0 0 1-19-2.39c-4.12-1.84-6.21-4-6.85-6.26a6.84 6.84 0 0 1 .76-4.72 24.11 24.11 0 0 0 1.67-4c.06-.21 0-.44.88-.26 4.05.9 8.25 1.5 12.35 2.3a59.81 59.81 0 0 1 10.75 2.94c7.3 3 10.3 7.09 5.81 10.25-1.46 1-3.23 1.64-6.33 2.13Z"/><path class="cls-7" d="M172.8 126.08a13.21 13.21 0 0 0 1.15-.81 4 4 0 0 0 .75-.79 1.52 1.52 0 0 0 .34-.78 1.26 1.26 0 0 0-.21-.78 2.9 2.9 0 0 0-.81-.79 4.55 4.55 0 0 0-2.27-.86 5.93 5.93 0 0 0-2.46.37c.41-.76 0-1.42-1.1-2a4.43 4.43 0 0 0-1.33-.39 4.69 4.69 0 0 0-1.4 0 8.18 8.18 0 0 0-1.38.34 13.79 13.79 0 0 0-1.42.61l-1.89-1.12.16-.06h-.27l-.15-.09-.15.09h-1.23v.67l2.14 1.23-1 .62-2.16-1.23-.35.2-1-.12v.7l2.2 1.29-.83.49-.78.45-1.09-.07v.75l1.47.83 1-.56a1.5 1.5 0 0 1 1.38-.11l2.51 1.45.14-.08-.14.08 3.52 2c.24.19.23.38 0 .54l-1-.12v.69l1.32 1.08 1.75-1 .49-.28.48-.27 2.22 1.29 1.35-.78v-.69l-.61.34-1.61-.92c.25-.14.62-.34 1.08-.62l2.19 1.27 1.35-.78v-.69h-1.23l-1-.59Zm-7.57-2.46-.41.24-.31.16-2.68-1.55a1.4 1.4 0 0 0 .34-.19l.47-.29c.12-.07.29-.16.53-.27a5.79 5.79 0 0 1 .61-.27l.62-.2a2.93 2.93 0 0 1 .66-.1 2.61 2.61 0 0 1 .62.06 2 2 0 0 1 .61.23 1.19 1.19 0 0 1 .37.3.44.44 0 0 1 .1.33 1.24 1.24 0 0 1-.09.33 1.06 1.06 0 0 1-.26.34l-.35.31c-.14.11-.29.21-.44.31a1.72 1.72 0 0 1-.39.28Zm6.28.85a2.46 2.46 0 0 1-.22.34 4 4 0 0 1-.37.35 3.39 3.39 0 0 1-.42.33l-.48.32-.45.27-.43.24-.32.19-3-1.71.41-.24.56-.33.61-.34c.28-.13.52-.24.73-.32s.45-.16.73-.24a4 4 0 0 1 .77-.14 3 3 0 0 1 .73 0 1.91 1.91 0 0 1 .69.25 1 1 0 0 1 .36.3.77.77 0 0 1 .14.32.63.63 0 0 1-.08.38Z"/><path class="cls-26" d="M171.75 120.58a6.09 6.09 0 0 0-2.46.36c.41-.76 0-1.41-1.1-2a4.43 4.43 0 0 0-1.33-.39 4.69 4.69 0 0 0-1.4 0 8.18 8.18 0 0 0-1.38.34 12 12 0 0 0-1.42.62l-2.21-1.28-1.34.78 2.14 1.23-1.05.62-2.2-1.19-1.34.77 2.22 1.28-.83.49-1.85 1.07 1.45.82 1-.56a1.53 1.53 0 0 1 1.38-.1l2.51 1.45.14-.08-.14.08 3.52 2c.25.2.23.38-.06.55l-1 .56 1.32 1.08 1.75-1 .49-.27.48-.27 2.22 1.28 1.35-.77-2.2-1.27 1.08-.62 2.19 1.27 1.35-.78-2.23-1.28q.58-.37 1.14-.81a4.74 4.74 0 0 0 .76-.79 1.63 1.63 0 0 0 .33-.79 1.17 1.17 0 0 0-.21-.77 2.94 2.94 0 0 0-.81-.8 4.54 4.54 0 0 0-2.3-.85Zm-9.92 1.23.34-.2.47-.28a4 4 0 0 1 .53-.28 4.26 4.26 0 0 1 .61-.27 6.4 6.4 0 0 1 .62-.2 3.63 3.63 0 0 1 .66-.1 3.26 3.26 0 0 1 .62.06 1.77 1.77 0 0 1 .61.24 1.07 1.07 0 0 1 .37.3.44.44 0 0 1 .1.33.9.9 0 0 1-.09.32 1.06 1.06 0 0 1-.26.34l-.35.31a4.37 4.37 0 0 1-.44.31l-.42.26-.4.24-.31.17-2.68-1.55Zm9.63 1.31a.69.69 0 0 1 .14.33.54.54 0 0 1-.09.35 2.56 2.56 0 0 1-.22.35c-.12.12-.24.24-.37.35l-.42.33c-.13.08-.29.2-.48.31l-.45.28-.43.24-.32.18-3-1.71a1.91 1.91 0 0 0 .41-.24l.56-.33.61-.34a6.83 6.83 0 0 1 .73-.32c.24-.09.48-.17.73-.24a4 4 0 0 1 .77-.14 3.54 3.54 0 0 1 .73 0 1.91 1.91 0 0 1 .69.25 1.19 1.19 0 0 1 .37.3Z"/><path d="m560.62 146-8.42-12.21s-.16-3-.71-3.73-.12-2.28-.12-2.28.59-.86.08-.94-.08-2-.08-2v-3.07s.47-2.94.08-3.65a1.14 1.14 0 0 1 0-1.25c.26-.38.47-1.69 0-2.13s-.36-3.06-.24-5.14a7.89 7.89 0 0 0-.82-3.58c0-.31-3.12-3.37-3.12-3.65s-2-1.42-3.15-1.73-1.77-.55-1.73-.7-1.85-.78-1.85-.78a3.67 3.67 0 0 1-2.28-.94c-.63-.82-2.56-1.06-2.61-1.07s0-.11 0-.16v-.18A8.14 8.14 0 0 0 536 96l.12-.24a3.41 3.41 0 0 0 1.93-.6 2.68 2.68 0 0 0 .94-1.89 4.21 4.21 0 0 0-.46-2.09 3.56 3.56 0 0 1-.68-2.21 8.47 8.47 0 0 1 .39-.94 2.52 2.52 0 0 0-.29-1.86c-.3-.58-.71-1.08-1-1.63a6.41 6.41 0 0 1-.84-2.32 3.63 3.63 0 0 0-.3-1.25 2.7 2.7 0 0 0-.69-.7 6.94 6.94 0 0 0-4.31-1.27 20.35 20.35 0 0 1-3.21.2 11.84 11.84 0 0 1-1.86-.49 4.84 4.84 0 0 0-4 .2c-1.15.76-1.61 2.24-2.39 3.41a28.07 28.07 0 0 0-2.22 3v-.07a3.34 3.34 0 0 0-.29.8 5.58 5.58 0 0 0 .17 2.6 1.83 1.83 0 0 0 .64 1.16A3.65 3.65 0 0 0 519 90a.9.9 0 0 1-.06.22 9 9 0 0 0 6.24 10.49v.29a5.17 5.17 0 0 1 0 .68c0 .22-3.95-.82-5-.27s-3.15 1-3.47 1.3-1.1.08-1.82 1.93-.77 3.73-1.69 4.6-1.37 1.45-1.41 2.08.11.77-.24 1-.87 1-.71 1.33a1.14 1.14 0 0 1-.43 1.19 1.31 1.31 0 0 0-.55 1.15 1 1 0 0 1-.77 1.06c-.54.2-.91 1.49-.91 1.49l-1.79 2.06-3.53-3.92a1.51 1.51 0 0 0-2.11-.1l-1.75 1.51a3.46 3.46 0 0 0-1.74 1 4.85 4.85 0 0 0-.9 1.34l-.95.86a2.41 2.41 0 0 0-.24 2.67l2.26 2.51a4 4 0 0 0-2.14.93c-3.39 3-3.43 5.74-2.92 7s4.8 6.09 4.8 6.09a19.32 19.32 0 0 0 6.1 5l-.21.25-.06.07-.06.08-.06.09-.05.08-.07.12v.07l-.08.16v.05s-.06.13-.09.21a.11.11 0 0 0 0 .08 1 1 0 0 0-.07.15v.54a.45.45 0 0 1 0 .11s-.05.18-.07.28 0 .07 0 .11v.21a.36.36 0 0 1 0 .14v1.09c-.08 4.6.19 5.27.19 5.27a2.55 2.55 0 0 0 2.09 1.56 2.51 2.51 0 0 0 .67 0c2-.36 6.85-1.18 8.54-.87a14.69 14.69 0 0 0 4.25-.34l.36-.07.24.77.77-.21.67.39.42.24c.77 2.63 3.92 1.73 3.92 1.73l.75.44 7.6.19a15.2 15.2 0 0 0 2.7 1.29l.39.09c.7 0 1.41.06 2.12 0s1 0 1 0-.08-2.07-.19-4.38a61.29 61.29 0 0 0 7-.57c4.06-.72 5.75-4.41 6.37-6.38a16.89 16.89 0 0 1 .39 2.45 19.15 19.15 0 0 0 .63 2.12 6.69 6.69 0 0 0 .87 1.57c3-1 1.18-2.55.55-3.22s.43-1.22.43-1.22.83-.55.75-1.06-.12-1.06 2.56-1 2.49-2.2 2.49-2.2Zm-41.57-25.09a17.44 17.44 0 0 0 .74 3.28 4.08 4.08 0 0 1 .09 1.3c-1.59-.13-3.24-.2-3.24-.2a.4.4 0 0 1 .09.21l-.25-.06-.36-.09 2.92-4.44Zm-5.79 9.22 2.74.43h.23a11.3 11.3 0 0 0-.14 1.29s.06.09.15.15a3.49 3.49 0 0 0 0 .65 7.49 7.49 0 0 0 2.8 1.08l-.06.22c-1.3-.68-3.35-1-3.59-1.51s-7.2-2.93-7.2-2.93l-.7-.35 1.84.35.5-.05a27 27 0 0 0 3.48.63Z" style="fill:url(#Sfumatura_senza_nome)"/><path class="cls-28" d="M551.66 147.66s-1.09 6.6-6.64 7.57-24 .77-24 .77-10.58-1.54-14.4-10.46-6.28-12.48-3-12.64 20.95 6 22 6 27.02-13.52 26.04 8.76Z"/><path class="cls-4" d="M551.66 147.66s-1.09 6.6-6.64 7.57-24 .77-24 .77-10.58-1.54-14.4-10.46-6.28-12.48-3-12.64 20.95 6 22 6 27.02-13.52 26.04 8.76Z"/><path class="cls-29" d="M502.06 155a2.53 2.53 0 0 0 2.07 1.54 2.44 2.44 0 0 0 .66 0c2-.36 6.79-1.16 8.47-.86a14.78 14.78 0 0 0 4.21-.34c.88-.17 1.54-.32 1.54-.32s-1.56-5.2-1.76-5.35-7-4.25-7-4.25l-5.41-.38a2.87 2.87 0 0 0-1.83 1.07 5.77 5.77 0 0 0-1.09 3.69c-.11 4.56.16 5.23.16 5.23Z"/><path class="cls-4" d="M502.06 155a2.53 2.53 0 0 0 2.07 1.54 20.79 20.79 0 0 1-1.47-2.14v-3.78a6.63 6.63 0 0 1 2.12-5.62c1.56-1.43-2.85.19-2.93 4.75s.18 5.25.18 5.25Z"/><path class="cls-30" d="m525.51 146.72 5-3.94 7.92-7.8-2.14-.1c-.32.21-1.22.85-1.26 1.63 0 1-2.14.07-3.23.61s-6.44 7.39-7.37 7.34-1.68-.48-2.07.19l3.16 2ZM503 146.1l.55.25c3.82 1.63 8.54 5.07 8.88 5.69a36.12 36.12 0 0 0 5.06 3.29c.88-.17 1.55-.32 1.55-.32s-1.57-5.19-1.76-5.35-7-4.24-7-4.24l-5.4-.39a2.87 2.87 0 0 0-1.88 1.07Z"/><path class="cls-28" d="M492.35 134.9c.5 1.25 4.76 6 4.76 6a18.78 18.78 0 0 0 6.51 5.15c3.82 1.64 8.55 5.07 8.9 5.7a44.85 44.85 0 0 0 5.41 3.49l.48.29 1.06.61.57.33 2.6-2.11c1.29-1 2.57-2.09 2.59-2.15s.54-1.44.42-1.52-.32-.58-.82-1.21a5.57 5.57 0 0 0-2-1.64 5.66 5.66 0 0 1-2.57-2.7c-.53-1.16-.17-.12-.43-.28a5.16 5.16 0 0 0-1.76-.78c-.85-.1-2.45-1.86-2.45-1.86a4.78 4.78 0 0 1-1.53-1.6c-.4-.85-6.46-5-7-5.4l14.67 9.42 3.51 2.25 5-3.94 7.92-7.8-2.61-.12c-3.86-.16-10.69-.43-11.55-.23a6.77 6.77 0 0 1-2.15.14 7.23 7.23 0 0 1-3.24-.59c-1.31-.69-3.31-1-3.55-1.51S508 130 508 130s-9.4-5-12.76-2-3.36 5.71-2.85 7Z"/><path class="cls-31" d="m522.67 106.26 1.21 4 1.55 9 5.73.39 1.66-2.76 1.66-2.75s1-3.65 1.77-7.19c.66-3.14 1.09-6.18.39-6.5s-1-1.35-1.32-2.48c0-.14-.07-.29-.09-.43a20.35 20.35 0 0 1-.39-2.91c-.06-1-12-.62-10.34 4.34a7.82 7.82 0 0 1 .45 2.63 5 5 0 0 1 0 .67 5.62 5.62 0 0 1-2.28 3.99Z"/><path d="m520.17 105.59.43 6.83 1 5.82 1.1 2.7 1 14.73s9.41 1.09 11.7 0a1.07 1.07 0 0 0 .41-.32c2.75-4.18 1.86-16.26 1.86-16.26l1.06-7.8-.71-4-1.7-.18-1.3-.14s-.3.36-.72.93c-1.16 1.54-3.29 4.53-3.14 5.79.19 1.71-.24 3.47-.9 3.74s-1.21.75-1.33.27a2.19 2.19 0 0 1-.12-1.24 10.2 10.2 0 0 0-.5-2.7 11.21 11.21 0 0 1-1-3.4 4 4 0 0 0-.43-2.46c-.31-.27-.74-.54-.38-1.79s-1.55-3.68-1.55-3.68l-4.74 3.23Z" style="fill:#e3e8f4"/><path class="cls-30" d="m532.6 122.65.38 11.67 2.26 1.25a.94.94 0 0 0 .41-.33c2.77-4.17 1.86-16.26 1.86-16.26l1-7.8-.7-4.05-1.69-.18c.65-3.13 1.08-6.18.38-6.5s-1-1.35-1.32-2.48l-1.18 8.25s.1.75.13 1.51a4.15 4.15 0 0 1-.1 1.45 4.9 4.9 0 0 0-.07 2 15.68 15.68 0 0 0-1.23 5.75c-.24 3-.15 5.76-.15 5.76Z"/><path class="cls-29" d="M535.25 97.78s2 .25 2.59 1.06a3.72 3.72 0 0 0 2.27.94s1.87.62 1.83.77.55.39 1.72.71 3.12 1.44 3.12 1.71 3.09 3.32 3.09 3.63a7.75 7.75 0 0 1 .82 3.55c-.12 2.07-.23 4.69.23 5.11s0 2.11 0 2.11a1.18 1.18 0 0 0 0 1.25c.39.7-.07 3.63-.07 3.63v3s-.43 1.93.07 2-.07.94-.07.94-.43 1.54.11 2.26.7 3.71.7 3.71l8.34 12.17s.12 2.22-2.53 2.18-2.62.51-2.54 1-.74 1.05-.74 1.05-1.05.55-.43 1.21 2.42 2.18-.55 3.2a7.72 7.72 0 0 1-.85-1.54 17.59 17.59 0 0 1-.63-2.11c-.16-.71-.27-3-.82-3.36s-.45-2.27-.45-2.27.77-1.52-.32-2.15-16.93-9.4-16.93-9.4l-.39-11.67s-.27-8.62 1.37-11.51a4.85 4.85 0 0 1 .07-2 10.33 10.33 0 0 0 0-3l1-8.28Z"/><path class="cls-30" d="M525 102.48s-3.92-.81-5-.27-3.12 1-3.43 1.29-1.09.08-1.8 1.93-.77 3.71-1.68 4.57-1.36 1.44-1.4 2.07.12.77-.23 1-.86 1-.71 1.33 8.11 7.18 8.11 7.18a18.75 18.75 0 0 0 .74 3.28c.36.66-.38 9.79-1.16 10.42s5.27.56 5.27.56.28-6 .51-6.3-.16-6.71-.16-6.71 0-5.46.47-6.91.45-6.24.45-6.24.45-2.88 1-3.55-1-3.62-1-3.62Z"/><path class="cls-29" d="M524.91 102.34s-3.92-.81-5-.26-3.12 1-3.43 1.29-1.09.08-1.79 1.91-.77 3.71-1.68 4.57-1.37 1.44-1.41 2.06.12.78-.23 1-.86 1-.7 1.33 8.12 7.17 8.12 7.17a18.26 18.26 0 0 0 .75 3.28c.35.66-.39 9.79-1.16 10.42s5.24.58 5.24.58.28-6 .51-6.3-.16-6.71-.16-6.71 0-5.47.47-6.91.45-6.24.45-6.24.45-2.88 1-3.55-.98-3.64-.98-3.64Z"/><path class="cls-30" d="M524.5 99a7.9 7.9 0 0 1 .45 2.63 9 9 0 0 0 10.27-4 22.07 22.07 0 0 1-.38-2.91c-.06-.99-12.02-.64-10.34 4.28Z"/><path class="cls-31" d="M518.57 92.87a8.91 8.91 0 1 0 .19-1.85 9.6 9.6 0 0 0-.19 1.85Z"/><path class="cls-29" d="m512.83 113.55-2.12.67a1.12 1.12 0 0 1-.44 1.16 1.3 1.3 0 0 0-.54 1.15 1 1 0 0 1-.77 1.06c-.54.19-.9 1.48-.9 1.48l-1.8 2.07s-.66.55-.54.82-.7.35-.7.35l.43 6.95 3.7.7 2.32-.23 1.87-.7 1.64-1 .74-1.93 3.28-5Z"/><path d="M505.53 122.88s-4.75-6.87-8.31-3.16 1.45 9.72 2.62 9.52 6.75-.52 6.75-.52l-1.06-5.84Z" style="fill:#ee8e9e"/><path d="M517.18 120.48a.29.29 0 0 0-.13-.4l-21.66-11a.29.29 0 0 0-.4.13l-8.52 16.69a.3.3 0 0 0 .13.41l21.66 11a.29.29 0 0 0 .4-.13Z" style="fill:#3f3d56;fill-rule:evenodd"/><path class="cls-10" d="m514.77 120.88-18.65-9.52-7.18 14 18.66 9.53 7.17-14.06Z"/><circle class="cls-35" cx="491.83" cy="118" r=".34"/><circle class="cls-35" cx="512.02" cy="128.35" r=".57"/><path class="cls-31" d="M502.46 124.32c0 5.16 10.61 6.25 10.61 6.25l2.7.43 1.22.19.51-5s-.56-.08-1.26-.24c-1-.24-2.37-.66-2.64-1.24-.46-1-11.11-5.52-11.14-.37Z"/><path class="cls-30" d="M518.76 91a1 1 0 0 1 .66.29c.3.32.32.88.71 1.08a.73.73 0 0 0 .46 0c1-.14 1.64-1.31 2.64-1.64A2.74 2.74 0 0 1 525 91a1.3 1.3 0 0 1 .58.39c.34.43.1 1.07.25 1.59.22.73 1.09 1 1.83 1.11a3.16 3.16 0 0 1 2.1.71 1.9 1.9 0 0 1 .38 1.51 1.32 1.32 0 0 0 0 .56c.21.58 1.22.5 1.49 0s.13-.62.59-.71a2 2 0 0 1 .95.16 7 7 0 0 0 2.47.39A8.94 8.94 0 1 0 518.78 91Z"/><path class="cls-29" d="M530.09 96.57a1.32 1.32 0 0 1 0-.56 2 2 0 0 0-.38-1.51 3.16 3.16 0 0 0-2.1-.71c-.75-.1-1.61-.39-1.83-1.11-.15-.52.09-1.16-.25-1.59a1.21 1.21 0 0 0-.58-.38 2.55 2.55 0 0 0-1.74-.15c-1 .32-1.6 1.49-2.64 1.64a.9.9 0 0 1-.46-.06c-.39-.19-.41-.77-.71-1.08-.48-.5-1.37-.18-2-.55a1.82 1.82 0 0 1-.63-1.16 5.78 5.78 0 0 1-.17-2.58c.34-1.46 1.64-2.45 2.47-3.69s1.2-2.62 2.36-3.38a4.75 4.75 0 0 1 4-.21 10.73 10.73 0 0 0 1.85.49 21.21 21.21 0 0 0 3.18-.19 6.82 6.82 0 0 1 4.19 1.27 2.39 2.39 0 0 1 .69.69 3.63 3.63 0 0 1 .3 1.24 6.44 6.44 0 0 0 .83 2.29c.32.55.74 1 1 1.61a2.5 2.5 0 0 1 .28 1.85c-.1.32-.3.61-.38.94a3.41 3.41 0 0 0 .67 2.19 4.16 4.16 0 0 1 .45 2.08 2.64 2.64 0 0 1-.94 1.88 3.29 3.29 0 0 1-2 .59 7 7 0 0 1-2.52-.38 2 2 0 0 0-1-.17c-.45.1-.38.39-.59.71-.23.49-1.24.57-1.45 0Z"/><path class="cls-30" d="m525.28 147 5-3.94 7.92-7.81-2.61-.12a1.78 1.78 0 0 0-.56 1.07c0 1-2.13.07-3.23.61s-6.44 7.39-7.37 7.34-1.68-.48-2.07.19a1.06 1.06 0 0 1-.59.35l3.52 2.27Z"/><path class="cls-28" d="m515.14 146.69 2.52 8.07.34 1.24 1.21-.33 2.65-.73 11.83-3.25a10.38 10.38 0 0 0 4.25-1.16 12.83 12.83 0 0 1 7.33-1.6c1.54.15 3.3-.53 4.74-3.19 0 0 3.28-9.68-5-12.45s-8.67 1.47-8.67 1.47l-.11.07c-.32.21-1.22.85-1.26 1.63 0 .95-2.14.07-3.23.62s-6.44 7.38-7.37 7.33-1.68-.48-2.07.19c-.29.39-1.16.49-1.73.51h-.62l-.6.18-4.23 1.31Z"/><path class="cls-30" d="m515.79 131 1.22.19.51-5s-.56-.08-1.26-.24a25.84 25.84 0 0 1-.47 5.05Z"/><path class="cls-30" d="M547.7 107.49s3.63-1 2.73 9.27a28.75 28.75 0 0 1-7.61 16.82s-7.72 3.39-11.19 2.85-6-.67-6-.67a8.9 8.9 0 0 0-3.51-.94c-1.93-.07-6.05-1.28-6.12-1.68s1-6.12.54-6.56c0 0 5.47.23 6 .62s1.33.12 1.93 0a6.66 6.66 0 0 1 5.93-.3 3.65 3.65 0 0 0 1.68-.2 1.66 1.66 0 0 1 1.22-.08 3.4 3.4 0 0 0 .85-.43c.11-.15 1.05 0 1.05 0a.39.39 0 0 0 .18 0 .41.41 0 0 0 .4-.31 2.87 2.87 0 0 1 .55-.86c.24-.24 1.06-5.93 3-8.15a1.28 1.28 0 0 0 .42-1.14c-.17-.64 3.22-9.54 7.91-8.28Z"/><path class="cls-29" d="M547.6 106.69s3.63-1.06 2.73 9.26a28.75 28.75 0 0 1-7.61 16.82s-7.72 3.39-11.19 2.85a58.86 58.86 0 0 0-6-.66A8.62 8.62 0 0 0 522 134c-1.93-.08-6-1.29-6.13-1.68s1-6.13.55-6.56c0 0 5.46.22 6 .62s1.32.11 1.93 0a6.64 6.64 0 0 1 5.93-.31 3.6 3.6 0 0 0 1.67-.2 1.72 1.72 0 0 1 1.22-.08 3.21 3.21 0 0 0 .85-.42c.12-.16 1.06 0 1.06 0a.53.53 0 0 0 .18 0 .41.41 0 0 0 .4-.32 2.53 2.53 0 0 1 .55-.86c.24-.24 1-5.93 3-8.15a1.25 1.25 0 0 0 .43-1.13c-.17-.64 3.22-9.53 7.9-8.28Z"/><path class="cls-30" d="m519.42 145.4 5.15 6.24c0-.12.55-1.44.43-1.52a7.16 7.16 0 0 0-2.81-2.85 5.27 5.27 0 0 1-2.2-2Z"/><path class="cls-30" d="m519.49 156.19.56.33 2.61-2.11c1.29-1 2.56-2.09 2.58-2.15s.55-1.44.43-1.52-.33-.58-.82-1.21c-3.48-1-1.27 1.45-1 1.55a3.56 3.56 0 0 0-4.49 3.65 5.5 5.5 0 0 0 .1 1.46Z"/><path class="cls-29" d="m523.8 158.16.74.43 7.53.19a16.42 16.42 0 0 0 2.67 1.29l.38.08a16.36 16.36 0 0 0 2.1 0h1s-.36-9.5-.63-10.5c-.13-.48-.77-.39-1.38-.13a8.53 8.53 0 0 0-1.35.68c-.43.26-3.2.31-3.71.59s-1.95-.16-2.85 0-2.49-1.06-2.49-1.06c-4.37-1.45-1.93 1.25-1.61 1.36a3.56 3.56 0 0 0-4.48 3.66c-.24 4.63 4 3.41 4 3.41Z"/><path d="M534.68 154.49c.09 2 1.62 4.41 2.53 5.69h1s-.36-9.5-.63-10.5c-.13-.48-.77-.39-1.38-.13a11.21 11.21 0 0 0-1.55 5Z" style="fill:#565387"/><path class="cls-30" d="M534.68 154.49c.09 2 1.62 4.41 2.53 5.69h1s-.36-9.5-.63-10.5c-.13-.48-.77-.39-1.38-.13a11.21 11.21 0 0 0-1.55 5Z"/><path class="cls-4" d="M533.4 154.75c.51 1.9.51 4 1.34 5.32l.38.08a16.36 16.36 0 0 0 2.1 0h1s-.35-9.5-.62-10.5c-.13-.48-.77-.39-1.38-.13a8.53 8.53 0 0 0-1.35.68 4.49 4.49 0 0 0-1.49 4.55Z"/><path class="cls-30" d="M507.41 135.5a15.53 15.53 0 0 1 6.91 5.53Z"/><g style="opacity:.1"><path d="M537.81 88.67v.09a3.05 3.05 0 0 1-.13.32 2.86 2.86 0 0 1 .13-.41ZM516.65 86.78a3 3 0 0 1 .29-.77.89.89 0 0 1-.06.2 5.69 5.69 0 0 0 .18 2.59 1.77 1.77 0 0 0 .63 1.16c.58.38 1.47.05 1.95.55.3.32.32.88.71 1.08a.84.84 0 0 0 .47 0c1-.14 1.63-1.32 2.63-1.64a2.67 2.67 0 0 1 1.74.15 1.3 1.3 0 0 1 .58.39c.34.43.1 1.07.26 1.59.21.72 1.08 1 1.82 1.1A3.28 3.28 0 0 1 530 94a2 2 0 0 1 .39 1.51 1.06 1.06 0 0 0 0 .56c.2.58 1.21.5 1.48 0s.13-.61.59-.7a1.93 1.93 0 0 1 1 .16 7.22 7.22 0 0 0 2.52.39 3.4 3.4 0 0 0 2-.6 2.18 2.18 0 0 0 .61-.74 2.51 2.51 0 0 1-.84 1.32 3.33 3.33 0 0 1-2 .6 7 7 0 0 1-2.52-.38 2 2 0 0 0-1-.17c-.45.1-.38.39-.59.71s-1.27.55-1.48 0a1.32 1.32 0 0 1 0-.56 1.85 1.85 0 0 0-.39-1.5 3.12 3.12 0 0 0-2.09-.72c-.75-.09-1.61-.38-1.83-1.11-.15-.52.08-1.15-.25-1.58a1.22 1.22 0 0 0-.58-.39 2.63 2.63 0 0 0-1.75-.15c-1 .32-1.59 1.49-2.63 1.64a.84.84 0 0 1-.47 0c-.38-.2-.4-.77-.71-1.09-.47-.5-1.37-.18-1.95-.55a1.79 1.79 0 0 1-.63-1.15 5.63 5.63 0 0 1-.17-2.61Z"/></g><path class="cls-30" d="M538.42 118c-.72 1-1.54 1.86-2.17 2.88a5.5 5.5 0 0 0-.94 3.41 9.25 9.25 0 0 0 1.37-2.44 33.38 33.38 0 0 1 2.62-4c.17-.25 1.24-1.7.7-1.77s-1.34 1.6-1.58 1.92Z"/><path class="cls-38" d="m103.11 437.23 4.94-1.52-3.49-19.71-7.29 2.23Z"/><path class="cls-39" d="m119 437.38-15.52 4.76-1.84-6 9.52-2.92a6.31 6.31 0 0 1 7.84 4.16Z"/><path class="cls-38" d="M61 437.34h5.17l2.45-19.91H61Z"/><path class="cls-39" d="M76.12 442.13H59.9v-6.27h9.95a6.3 6.3 0 0 1 6.27 6.26Z"/><path class="cls-38" d="M60.63 379.62a3.89 3.89 0 0 1-1.31-2.91 3.84 3.84 0 0 1 1.45-3l4-50.4 8.14 2-6.52 49.19a3.82 3.82 0 0 1 .7 2.22 3.89 3.89 0 0 1-6.46 2.9Z"/><circle class="cls-38" cx="76.88" cy="296.8" r="10.34"/><path class="cls-6" d="M67.94 321.75a8.76 8.76 0 0 1 .11-10.68c1.64-2 4.39-3.6 9-3.6a18.78 18.78 0 0 1 16.84 9.68s5 9.27 2.11 17.69-3 9.26-3 9.26l-19.37-1.68s3.27-8.35-5.71-20.67Z"/><path class="cls-6" d="m62 330.13 4.17-13.65A6.53 6.53 0 1 1 78.36 321l-5.3 12.08-11.09-3Z"/><path d="m92.6 342 16.4 85.06-8.84 2.53-21.48-56L69 430.85l-9.27 1.26s-4.06-75.77 13.9-89.69L92.6 342Z" style="fill:#49485d"/><path class="cls-38" d="M116.24 338a4.57 4.57 0 0 0-.41.57l-20.86 1-4-12.26-7 3.31 6.56 18.27 25.8-5.05a4.42 4.42 0 1 0-.1-5.85Z"/><path class="cls-6" d="M81.06 318.38a6.62 6.62 0 0 1 0-.77 6.55 6.55 0 0 1 6.52-6.52H88a6.56 6.56 0 0 1 6.12 6.51v13.2l-11.34 1.74-1.67-14.17Z"/><path class="cls-39" d="M79.16 307.24a3 3 0 0 1-2.68-3.2 5.3 5.3 0 0 1 2.36-3.83 26 26 0 0 1 4.16-2.14 8.81 8.81 0 0 0 3.65-2.8 6.18 6.18 0 0 0 .43-5.68 9.14 9.14 0 0 0-3.93-4.31 12 12 0 0 0-15.84 3.47l-1.77 4.83a7.88 7.88 0 0 0-1 8 10.31 10.31 0 0 0 6.14 5.48 15 15 0 0 0 8.35.25"/><path class="cls-39" d="M70 290a3.73 3.73 0 0 0-2-1.51 6.43 6.43 0 0 0-8.48 5.77 19.86 19.86 0 0 0 .7 4.69 6.36 6.36 0 0 1-.51 4.61 6.85 6.85 0 0 1-2.83 2.2 5.41 5.41 0 0 1-2.87.79 2.09 2.09 0 0 1-2-1.89 8.2 8.2 0 0 0-.67 2.28 2.74 2.74 0 0 0 .7 2.2c.83.8 2.15.74 3.29.57a14.51 14.51 0 0 0 6.93-2.64 6.94 6.94 0 0 0 2.74-6.58 15.74 15.74 0 0 0-1.13-2.92 5.46 5.46 0 0 1-.53-3 3.68 3.68 0 0 1 1.87-2.5 5 5 0 0 1 3.15-.48c.7.12 1.57.29 2-.28a1.13 1.13 0 0 0 0-1.21 3.46 3.46 0 0 0-.9-.89"/></g></g></g></svg>