<svg viewBox="0 0 475 421" xmlns="http://www.w3.org/2000/svg" xml:space="preserve" style="fill-rule:evenodd;clip-rule:evenodd;stroke-linejoin:round;stroke-miterlimit:2"><path id="Tdex_logo" d="M288.5 78.042h41.458v242.416c0 47.375-34 89.584-81.041 95.5a92.966 92.966 0 0 1-44.709-5.333c-.458 0-.25-.875.25-.875h-2.666c-34.728-14.32-57.537-48.31-57.625-85.875V222.5c-.002-.014-.002-.028-.002-.042 0-.228.188-.416.416-.416H185.25a.46.46 0 0 1 .458.458v99.083c0 26.334 18.875 50 45 53.209 27.989 3.485 53.889-16.678 57.375-44.667.284-2.113.424-4.243.417-6.375V78.042Zm184.958 17.416c-5.958-47.041-48.125-81.041-95.5-81.041H237V0h-.333l-33.334 34.917a.626.626 0 0 0 0 .666L236.667 70.5H237V55.958h144.333c28.207 0 51.417 23.211 51.417 51.417v.042a46.707 46.707 0 0 1-.417 6.375c-3.166 26.125-26.916 45-53.166 45h-27a.46.46 0 0 0-.459.458v40.375a.46.46 0 0 0 .459.458h29.166c37.575-.054 71.583-22.875 85.875-57.625v-2.416a.46.46 0 0 0 .875 0 91.993 91.993 0 0 0 5.375-44.584ZM237 214.75h.333l33.334-34.958a.46.46 0 0 0 0-.625l-33.334-34.917H237v14.542H92.833c-28.19-.023-51.375-23.226-51.375-51.417v-.042a53.414 53.414 0 0 1 .375-6.333c3.209-26.167 26.959-45.042 53.209-45.042h89.25a.418.418 0 0 0 .458-.414V14.958a.46.46 0 0 0-.458-.458H92.833c-37.578.084-71.577 22.915-85.875 57.667v2.458c0-.5-.708-.708-.875-.208A92.88 92.88 0 0 0 .75 119.208c5.958 47.084 48.208 81 95.5 81H237v14.542Z" style="fill:#0fff00;fill-rule:nonzero"/></svg>