<svg id="Layer_1" data-name="Layer 1" xmlns="http://www.w3.org/2000/svg" viewBox="0 0 374 400.6"><defs><style>.cls-1{fill:#92d6e9}.cls-2,.cls-7{fill:#0a1e2b;stroke:#0a1e2b;isolation:isolate}.cls-12,.cls-2,.cls-3,.cls-6,.cls-7,.cls-8{stroke-linecap:round;stroke-linejoin:round}.cls-12,.cls-2,.cls-3,.cls-6,.cls-7{stroke-width:6px}.cls-2{opacity:.3}.cls-12,.cls-3,.cls-6,.cls-8{fill:none}.cls-3{stroke:#fff}.cls-4{fill:#cbedf9}.cls-5{fill:#e8f9ff}.cls-6,.cls-8{stroke:#212552}.cls-7{opacity:.23}.cls-8{stroke-width:10px}.cls-12{stroke:#e8f9ff}</style></defs><path class="cls-1" d="M459.5 669.4V662a6 6 0 0 0-6-6h-66a6 6 0 0 0-6 6v22a6 6 0 0 0 6 6h43.9a18.09 18.09 0 0 0 12.8-5.3Z" transform="translate(-327 -292.4)"/><path class="cls-2" d="M453.5 656h-66a6 6 0 0 0-6 6v20.4h65l13-13V662a6 6 0 0 0-6-6Z" transform="translate(-327 -292.4)"/><path class="cls-1" d="M540.5 669.4V662a6 6 0 0 1 6-6h66a6 6 0 0 1 6 6v22a6 6 0 0 1-6 6h-43.9a18.09 18.09 0 0 1-12.8-5.3Z" transform="translate(-327 -292.4)"/><path class="cls-2" d="M612.5 656h-66a6 6 0 0 0-6 6v7.4l13 13h65V662a6 6 0 0 0-6-6Z" transform="translate(-327 -292.4)"/><path class="cls-3" d="M459.5 669.4V662a6 6 0 0 0-6-6h-66a6 6 0 0 0-6 6v22a6 6 0 0 0 6 6h43.9a18.09 18.09 0 0 0 12.8-5.3ZM540.5 669.4V662a6 6 0 0 1 6-6h66a6 6 0 0 1 6 6v22a6 6 0 0 1-6 6h-43.9a18.09 18.09 0 0 1-12.8-5.3Z" transform="translate(-327 -292.4)"/><path class="cls-4" d="M630 669.5H370a40 40 0 0 1-40-40v-260a40 40 0 0 1 40-40h260a40 40 0 0 1 40 40v260a40 40 0 0 1-40 40Z" transform="translate(-327 -292.4)"/><path class="cls-5" d="M630 329.5H370a40 40 0 0 0-40 40v23a40 40 0 0 1 40-40h260a40 40 0 0 1 40 40v-23a40 40 0 0 0-40-40Z" transform="translate(-327 -292.4)"/><path class="cls-1" d="M630 646.5H370a40 40 0 0 1-40-40v23a40 40 0 0 0 40 40h260a40 40 0 0 0 40-40v-23a40 40 0 0 1-40 40Z" transform="translate(-327 -292.4)"/><path class="cls-3" d="M630 669.5H370a40 40 0 0 1-40-40v-260a40 40 0 0 1 40-40h260a40 40 0 0 1 40 40v260a40 40 0 0 1-40 40Z" transform="translate(-327 -292.4)"/><path class="cls-5" d="M618 365.5H382a16 16 0 0 0-16 16v8c0-8.8 7.2-13 16-13h236c8.8 0 16 4.2 16 13v-8a16 16 0 0 0-16-16Z" transform="translate(-327 -292.4)"/><path class="cls-1" d="M618 620.5H382a16 16 0 0 1-16-16v13a16 16 0 0 0 16 16h236a16 16 0 0 0 16-16v-13a16 16 0 0 1-16 16Z" transform="translate(-327 -292.4)"/><path class="cls-6" d="M382 633.5a16 16 0 0 1-16-16v-236a16 16 0 0 1 16-16h236a16 16 0 0 1 16 16v236a16 16 0 0 1-16 16Z" transform="translate(-327 -292.4)"/><path class="cls-7" d="M605.3 594.6h-2a4 4 0 0 1-4-4v-152a4 4 0 0 1 4-4h2a4 4 0 0 1 4 4v152a4 4 0 0 1-4 4Z" transform="translate(-327 -292.4)"/><path class="cls-1" d="M605.3 574.6h-2a4 4 0 0 1-4-4v-152a4 4 0 0 1 4-4h2a4 4 0 0 1 4 4v152a4 4 0 0 1-4 4Z" transform="translate(-327 -292.4)"/><path class="cls-6" d="M605.3 574.6h-2a4 4 0 0 1-4-4v-152a4 4 0 0 1 4-4h2a4 4 0 0 1 4 4v152a4 4 0 0 1-4 4Z" transform="translate(-327 -292.4)"/><circle class="cls-7" cx="173" cy="215.1" r="65"/><circle class="cls-4" cx="173" cy="207.1" r="65"/><circle class="cls-6" cx="173" cy="207.1" r="65"/><circle class="cls-1" cx="173" cy="207.1" r="54"/><path class="cls-8" d="M173 166.1v82M214 207.1h-82M202 178.1l-58 58M202 236.1l-58-58"/><path class="cls-2" d="M500 547.2h0a25 25 0 0 1-25-25v-25h50v25a25 25 0 0 1-25 25Z" transform="translate(-327 -292.4)"/><path class="cls-7" d="M366 462h0a8 8 0 0 1-8-8v-24a8 8 0 0 1 8-8h0a8 8 0 0 1 8 8v24a8 8 0 0 1-8 8ZM366 592.5h0a8 8 0 0 1-8-8v-24a8 8 0 0 1 8-8h0a8 8 0 0 1 8 8v24a8 8 0 0 1-8 8Z" transform="translate(-327 -292.4)"/><path class="cls-1" d="M366 454a8 8 0 0 1-8-8v-24a8 8 0 0 1 8-8 8 8 0 0 1 8 8v24a8 8 0 0 1-8 8ZM366 585a8 8 0 0 1-8-8v-24a8 8 0 0 1 8-8 8 8 0 0 1 8 8v24a8 8 0 0 1-8 8Z" transform="translate(-327 -292.4)"/><path class="cls-6" d="M366 454h0a8 8 0 0 1-8-8v-24a8 8 0 0 1 8-8h0a8 8 0 0 1 8 8v24a8 8 0 0 1-8 8ZM366 585h0a8 8 0 0 1-8-8v-24a8 8 0 0 1 8-8h0a8 8 0 0 1 8 8v24a8 8 0 0 1-8 8Z" transform="translate(-327 -292.4)"/><circle cx="173" cy="207.1" r="25" style="fill:#ffea9e"/><circle cx="173" cy="207.1" r="11.2" style="fill:#edc75d"/><circle cx="173" cy="207.1" r="23" style="stroke-width:8px;stroke:#212552;fill:none;stroke-linecap:round;stroke-linejoin:round"/><path class="cls-12" d="m371 54.9-20.2-2.8M322.9 23.2l-3-20.2M342.9 30.5 357.4 16"/></svg>